UbuntuSansMono-Regular.ufo
<glyph name="numbersign" format="2">
  <advance width="560"/>
  <unicode hex="0023"/>
  <outline>
    <contour>
      <point x="71" y="0" type="line"/>
      <point x="146" y="0" type="line"/>
      <point x="182" y="187" type="line"/>
      <point x="316" y="187" type="line"/>
      <point x="281" y="0" type="line"/>
      <point x="356" y="0" type="line"/>
      <point x="391" y="187" type="line"/>
      <point x="527" y="187" type="line"/>
      <point x="527" y="250" type="line"/>
      <point x="404" y="250" type="line"/>
      <point x="443" y="444" type="line"/>
      <point x="527" y="444" type="line"/>
      <point x="527" y="506" type="line"/>
      <point x="454" y="506" type="line"/>
      <point x="488" y="693" type="line"/>
      <point x="413" y="693" type="line"/>
      <point x="379" y="506" type="line"/>
      <point x="245" y="506" type="line"/>
      <point x="279" y="693" type="line"/>
      <point x="204" y="693" type="line"/>
      <point x="169" y="506" type="line"/>
      <point x="33" y="506" type="line"/>
      <point x="33" y="444" type="line"/>
      <point x="155" y="444" type="line"/>
      <point x="118" y="250" type="line"/>
      <point x="33" y="250" type="line"/>
      <point x="33" y="187" type="line"/>
      <point x="107" y="187" type="line"/>
    </contour>
    <contour>
      <point x="193" y="250" type="line"/>
      <point x="232" y="444" type="line"/>
      <point x="365" y="444" type="line"/>
      <point x="328" y="250" type="line"/>
    </contour>
  </outline>
</glyph>
<glyph name="ampersand" format="2">
  <advance width="560"/>
  <unicode hex="0026"/>
  <outline>
    <contour>
      <point x="215" y="-9" type="curve" smooth="yes"/>
      <point x="283" y="-9"/>
      <point x="345" y="16"/>
      <point x="392" y="80" type="curve"/>
      <point x="409" y="56"/>
      <point x="426" y="28"/>
      <point x="439" y="0" type="curve"/>
      <point x="527" y="0" type="line"/>
      <point x="498" y="58"/>
      <point x="465" y="109"/>
      <point x="432" y="155" type="curve"/>
      <point x="455" y="208"/>
      <point x="470" y="274"/>
      <point x="482" y="362" type="curve"/>
      <point x="416" y="370" type="line"/>
      <point x="411" y="310"/>
      <point x="401" y="257"/>
      <point x="387" y="216" type="curve"/>
      <point x="361" y="249"/>
      <point x="335" y="277"/>
      <point x="261" y="360" type="curve"/>
      <point x="359" y="424"/>
      <point x="403" y="502"/>
      <point x="403" y="571" type="curve" smooth="yes"/>
      <point x="403" y="662"/>
      <point x="331" y="709"/>
      <point x="253" y="709" type="curve" smooth="yes"/>
      <point x="167" y="709"/>
      <point x="88" y="655"/>
      <point x="88" y="541" type="curve" smooth="yes"/>
      <point x="88" y="483"/>
      <point x="114" y="431"/>
      <point x="154" y="377" type="curve"/>
      <point x="74" y="313"/>
      <point x="38" y="235"/>
      <point x="38" y="165" type="curve" smooth="yes"/>
      <point x="38" y="71"/>
      <point x="108" y="-9"/>
    </contour>
    <contour>
      <point x="226" y="59" type="curve" smooth="yes"/>
      <point x="174" y="59"/>
      <point x="124" y="101"/>
      <point x="124" y="175" type="curve" smooth="yes"/>
      <point x="124" y="222"/>
      <point x="146" y="284"/>
      <point x="192" y="328" type="curve"/>
      <point x="240" y="270"/>
      <point x="299" y="210"/>
      <point x="350" y="140" type="curve"/>
      <point x="314" y="85"/>
      <point x="266" y="59"/>
    </contour>
    <contour>
      <point x="223" y="407" type="curve"/>
      <point x="173" y="470"/>
      <point x="165" y="500"/>
      <point x="165" y="547" type="curve" smooth="yes"/>
      <point x="165" y="611"/>
      <point x="211" y="644"/>
      <point x="251" y="644" type="curve" smooth="yes"/>
      <point x="290" y="644"/>
      <point x="329" y="615"/>
      <point x="329" y="558" type="curve" smooth="yes"/>
      <point x="329" y="513"/>
      <point x="302" y="457"/>
    </contour>
  </outline>
</glyph>
<glyph name="five" format="2">
  <advance width="560"/>
  <unicode hex="0035"/>
  <outline>
    <contour>
      <point x="249" y="-15" type="curve" smooth="yes"/>
      <point x="422" y="-15"/>
      <point x="493" y="72"/>
      <point x="493" y="193" type="curve" smooth="yes"/>
      <point x="493" y="330"/>
      <point x="409" y="415"/>
      <point x="203" y="422" type="curve"/>
      <point x="209" y="465"/>
      <point x="216" y="588"/>
      <point x="219" y="626" type="curve"/>
      <point x="476" y="626" type="line"/>
      <point x="476" y="693" type="line"/>
      <point x="148" y="693" type="line"/>
      <point x="143" y="573"/>
      <point x="141" y="489"/>
      <point x="123" y="356" type="curve"/>
      <point x="348" y="356"/>
      <point x="413" y="297"/>
      <point x="413" y="188" type="curve" smooth="yes"/>
      <point x="413" y="116"/>
      <point x="369" y="56"/>
      <point x="247" y="56" type="curve" smooth="yes"/>
      <point x="172" y="56"/>
      <point x="120" y="81"/>
      <point x="100" y="91" type="curve"/>
      <point x="85" y="21" type="line"/>
      <point x="104" y="11"/>
      <point x="180" y="-15"/>
    </contour>
  </outline>
</glyph>
<glyph name="C" format="2">
  <advance width="560"/>
  <unicode hex="0043"/>
  <anchor x="280" y="0" name="bottom"/>
  <anchor x="280" y="685" name="top"/>
  <outline>
    <contour>
      <point x="339" y="-15" type="curve" smooth="yes"/>
      <point x="400" y="-15"/>
      <point x="456" y="-4"/>
      <point x="512" y="28" type="curve"/>
      <point x="491" y="94" type="line"/>
      <point x="433" y="63"/>
      <point x="385" y="56"/>
      <point x="349" y="56" type="curve" smooth="yes"/>
      <point x="234" y="56"/>
      <point x="139" y="146"/>
      <point x="139" y="346" type="curve" smooth="yes"/>
      <point x="139" y="512"/>
      <point x="211" y="638"/>
      <point x="344" y="638" type="curve" smooth="yes"/>
      <point x="381" y="638"/>
      <point x="425" y="627"/>
      <point x="482" y="596" type="curve"/>
      <point x="506" y="662" type="line"/>
      <point x="440" y="701"/>
      <point x="381" y="709"/>
      <point x="339" y="709" type="curve" smooth="yes"/>
      <point x="189" y="709"/>
      <point x="59" y="584"/>
      <point x="59" y="347" type="curve" smooth="yes"/>
      <point x="59" y="95"/>
      <point x="185" y="-15"/>
    </contour>
  </outline>
</glyph>
<glyph name="K" format="2">
  <advance width="560"/>
  <unicode hex="004B"/>
  <anchor x="280" y="0" name="bottom"/>
  <anchor x="280" y="685" name="top"/>
  <outline>
    <contour>
      <point x="79" y="0" type="line"/>
      <point x="157" y="0" type="line"/>
      <point x="157" y="337" type="line"/>
      <point x="271" y="268"/>
      <point x="376" y="149"/>
      <point x="462" y="0" type="curve"/>
      <point x="551" y="0" type="line"/>
      <point x="481" y="155"/>
      <point x="347" y="291"/>
      <point x="250" y="369" type="curve"/>
      <point x="354" y="476"/>
      <point x="445" y="577"/>
      <point x="527" y="693" type="curve"/>
      <point x="436" y="693" type="line"/>
      <point x="359" y="595"/>
      <point x="262" y="482"/>
      <point x="157" y="378" type="curve"/>
      <point x="157" y="693" type="line"/>
      <point x="79" y="693" type="line"/>
    </contour>
  </outline>
</glyph>
<glyph name="W" format="2">
  <advance width="560"/>
  <unicode hex="0057"/>
  <anchor x="280" y="0" name="bottom"/>
  <anchor x="280" y="685" name="top"/>
  <outline>
    <contour>
      <point x="90" y="0" type="curve"/>
      <point x="168" y="0" type="line"/>
      <point x="206" y="122"/>
      <point x="241" y="235"/>
      <point x="278" y="356" type="curve"/>
      <point x="315" y="236"/>
      <point x="353" y="122"/>
      <point x="390" y="0" type="curve"/>
      <point x="466" y="0" type="line"/>
      <point x="491" y="178"/>
      <point x="510" y="437"/>
      <point x="521" y="693" type="curve"/>
      <point x="443" y="693" type="line"/>
      <point x="437" y="497"/>
      <point x="431" y="306"/>
      <point x="425" y="102" type="curve"/>
      <point x="390" y="203"/>
      <point x="357" y="305"/>
      <point x="315" y="425" type="curve"/>
      <point x="241" y="425" type="line"/>
      <point x="202" y="304"/>
      <point x="170" y="211"/>
      <point x="136" y="102" type="curve"/>
      <point x="129" y="306"/>
      <point x="124" y="497"/>
      <point x="117" y="693" type="curve"/>
      <point x="39" y="693" type="line"/>
      <point x="50" y="439"/>
      <point x="64" y="177"/>
    </contour>
  </outline>
</glyph>
<glyph name="r" format="2">
  <advance width="560"/>
  <unicode hex="0072"/>
  <anchor x="130" y="0" name="bottom"/>
  <anchor x="280" y="582" name="top"/>
  <outline>
    <contour>
      <point x="126" y="0" type="line"/>
      <point x="204" y="0" type="line"/>
      <point x="204" y="443" type="line"/>
      <point x="252" y="457"/>
      <point x="301" y="464"/>
      <point x="350" y="464" type="curve" smooth="yes"/>
      <point x="395" y="464"/>
      <point x="419" y="464"/>
      <point x="470" y="450" type="curve"/>
      <point x="484" y="517" type="line"/>
      <point x="432" y="527"/>
      <point x="404" y="530"/>
      <point x="352" y="530" type="curve" smooth="yes"/>
      <point x="280" y="530"/>
      <point x="202" y="516"/>
      <point x="126" y="492" type="curve"/>
    </contour>
  </outline>
</glyph>
<glyph name="registered" format="2">
  <advance width="560"/>
  <unicode hex="00AE"/>
  <outline>
    <contour>
      <point x="280" y="261" type="curve" smooth="yes"/>
      <point x="405" y="261"/>
      <point x="517" y="351"/>
      <point x="517" y="505" type="curve"/>
      <point x="517" y="658"/>
      <point x="405" y="748"/>
      <point x="280" y="748" type="curve"/>
      <point x="156" y="748"/>
      <point x="44" y="658"/>
      <point x="44" y="505" type="curve" smooth="yes"/>
      <point x="44" y="352"/>
      <point x="156" y="261"/>
    </contour>
    <contour>
      <point x="280" y="314" type="curve" smooth="yes"/>
      <point x="176" y="314"/>
      <point x="102" y="391"/>
      <point x="102" y="505" type="curve"/>
      <point x="102" y="618"/>
      <point x="176" y="694"/>
      <point x="280" y="694" type="curve" smooth="yes"/>
      <point x="384" y="694"/>
      <point x="459" y="619"/>
      <point x="459" y="505" type="curve"/>
      <point x="459" y="390"/>
      <point x="384" y="314"/>
    </contour>
    <contour>
      <point x="189" y="383" type="line"/>
      <point x="244" y="383" type="line"/>
      <point x="244" y="472" type="line"/>
      <point x="270" y="472" type="line"/>
      <point x="274" y="472"/>
      <point x="279" y="472"/>
      <point x="283" y="472" type="curve"/>
      <point x="300" y="450"/>
      <point x="315" y="423"/>
      <point x="336" y="383" type="curve"/>
      <point x="394" y="383" type="line"/>
      <point x="375" y="424"/>
      <point x="352" y="463"/>
      <point x="335" y="486" type="curve"/>
      <point x="361" y="498"/>
      <point x="379" y="520"/>
      <point x="379" y="551" type="curve" smooth="yes"/>
      <point x="379" y="606"/>
      <point x="339" y="634"/>
      <point x="265" y="634" type="curve" smooth="yes"/>
      <point x="246" y="634"/>
      <point x="219" y="632"/>
      <point x="189" y="625" type="curve"/>
    </contour>
    <contour>
      <point x="244" y="516" type="line"/>
      <point x="244" y="585" type="line"/>
      <point x="252" y="586"/>
      <point x="257" y="587"/>
      <point x="270" y="587" type="curve" smooth="yes"/>
      <point x="298" y="587"/>
      <point x="322" y="579"/>
      <point x="322" y="552" type="curve" smooth="yes"/>
      <point x="322" y="524"/>
      <point x="301" y="516"/>
      <point x="264" y="516" type="curve" smooth="yes"/>
    </contour>
  </outline>
</glyph>
<glyph name="ordmasculine" format="2">
  <advance width="560"/>
  <unicode hex="00BA"/>
  <outline>
    <contour>
      <point x="280" y="335" type="curve" smooth="yes"/>
      <point x="381" y="335"/>
      <point x="456" y="409"/>
      <point x="456" y="523" type="curve" smooth="yes"/>
      <point x="456" y="634"/>
      <point x="381" y="708"/>
      <point x="280" y="708" type="curve" smooth="yes"/>
      <point x="180" y="708"/>
      <point x="105" y="634"/>
      <point x="105" y="523" type="curve" smooth="yes"/>
      <point x="105" y="409"/>
      <point x="180" y="335"/>
    </contour>
    <contour>
      <point x="280" y="391" type="curve" smooth="yes"/>
      <point x="208" y="391"/>
      <point x="167" y="445"/>
      <point x="167" y="523" type="curve" smooth="yes"/>
      <point x="167" y="601"/>
      <point x="209" y="651"/>
      <point x="280" y="651" type="curve" smooth="yes"/>
      <point x="353" y="651"/>
      <point x="394" y="601"/>
      <point x="394" y="523" type="curve" smooth="yes"/>
      <point x="394" y="445"/>
      <point x="353" y="391"/>
    </contour>
  </outline>
</glyph>
<glyph name="AE" format="2">
  <advance width="560"/>
  <unicode hex="00C6"/>
  <anchor x="280" y="0" name="bottom"/>
  <anchor x="280" y="685" name="top"/>
  <outline>
    <contour>
      <point x="36" y="0" type="curve"/>
      <point x="111" y="0" type="line"/>
      <point x="155" y="187" type="line"/>
      <point x="298" y="187" type="line"/>
      <point x="298" y="0" type="line"/>
      <point x="537" y="0" type="line"/>
      <point x="537" y="67" type="line"/>
      <point x="373" y="67" type="line"/>
      <point x="373" y="328" type="line"/>
      <point x="497" y="328" type="line"/>
      <point x="497" y="395" type="line"/>
      <point x="373" y="395" type="line"/>
      <point x="373" y="626" type="line"/>
      <point x="522" y="626" type="line"/>
      <point x="522" y="693" type="line"/>
      <point x="252" y="693" type="line"/>
      <point x="172" y="494"/>
      <point x="98" y="240"/>
    </contour>
    <contour>
      <point x="176" y="253" type="line"/>
      <point x="208" y="358"/>
      <point x="251" y="506"/>
      <point x="298" y="644" type="curve"/>
      <point x="298" y="253" type="line"/>
    </contour>
  </outline>
</glyph>
<glyph name="Eth" format="2">
  <advance width="560"/>
  <unicode hex="00D0"/>
  <outline>
    <contour>
      <point x="214" y="-5" type="curve" smooth="yes"/>
      <point x="382" y="-5"/>
      <point x="511" y="91"/>
      <point x="511" y="347" type="curve" smooth="yes"/>
      <point x="511" y="605"/>
      <point x="377" y="700"/>
      <point x="209" y="700" type="curve" smooth="yes"/>
      <point x="164" y="700"/>
      <point x="120" y="693"/>
      <point x="80" y="683" type="curve"/>
      <point x="80" y="392" type="line"/>
      <point x="20" y="392" type="line"/>
      <point x="20" y="333" type="line"/>
      <point x="80" y="333" type="line"/>
      <point x="80" y="12" type="line"/>
      <point x="123" y="1"/>
      <point x="170" y="-5"/>
    </contour>
    <contour>
      <point x="220" y="63" type="curve" smooth="yes"/>
      <point x="201" y="63"/>
      <point x="179" y="64"/>
      <point x="158" y="67" type="curve"/>
      <point x="158" y="333" type="line"/>
      <point x="275" y="333" type="line"/>
      <point x="275" y="392" type="line"/>
      <point x="158" y="392" type="line"/>
      <point x="158" y="629" type="line"/>
      <point x="173" y="631"/>
      <point x="193" y="632"/>
      <point x="211" y="632" type="curve" smooth="yes"/>
      <point x="348" y="632"/>
      <point x="430" y="554"/>
      <point x="430" y="347" type="curve" smooth="yes"/>
      <point x="430" y="134"/>
      <point x="348" y="63"/>
    </contour>
  </outline>
</glyph>
<glyph name="multiply" format="2">
  <advance width="560"/>
  <unicode hex="00D7"/>
  <outline>
    <contour>
      <point x="131" y="96" type="line"/>
      <point x="279" y="245" type="line"/>
      <point x="427" y="96" type="line"/>
      <point x="475" y="146" type="line"/>
      <point x="328" y="295" type="line"/>
      <point x="476" y="442" type="line"/>
      <point x="427" y="491" type="line"/>
      <point x="279" y="344" type="line"/>
      <point x="131" y="490" type="line"/>
      <point x="81" y="442" type="line"/>
      <point x="229" y="295" type="line"/>
      <point x="81" y="146" type="line"/>
    </contour>
  </outline>
</glyph>
<glyph name="Thorn" format="2">
  <advance width="560"/>
  <unicode hex="00DE"/>
  <anchor x="280" y="0" name="bottom"/>
  <anchor x="280" y="685" name="top"/>
  <outline>
    <contour>
      <point x="89" y="0" type="line"/>
      <point x="167" y="0" type="line"/>
      <point x="167" y="148" type="line"/>
      <point x="231" y="148" type="line" smooth="yes"/>
      <point x="393" y="148"/>
      <point x="504" y="205"/>
      <point x="504" y="386" type="curve" smooth="yes"/>
      <point x="504" y="510"/>
      <point x="409" y="577"/>
      <point x="239" y="577" type="curve" smooth="yes"/>
      <point x="216" y="577"/>
      <point x="191" y="576"/>
      <point x="167" y="573" type="curve"/>
      <point x="167" y="693" type="line"/>
      <point x="89" y="693" type="line"/>
    </contour>
    <contour>
      <point x="167" y="213" type="line"/>
      <point x="167" y="508" type="line"/>
      <point x="188" y="509"/>
      <point x="211" y="509"/>
      <point x="253" y="509" type="curve" smooth="yes"/>
      <point x="334" y="509"/>
      <point x="424" y="488"/>
      <point x="424" y="380" type="curve" smooth="yes"/>
      <point x="424" y="245"/>
      <point x="345" y="213"/>
      <point x="235" y="213" type="curve" smooth="yes"/>
    </contour>
  </outline>
</glyph>
<glyph name="ae" format="2">
  <advance width="560"/>
  <unicode hex="00E6"/>
  <anchor x="280" y="0" name="bottom"/>
  <anchor x="280" y="582" name="top"/>
  <outline>
    <contour>
      <point x="181" y="-12" type="curve" smooth="yes"/>
      <point x="224" y="-12"/>
      <point x="266" y="1"/>
      <point x="307" y="34" type="curve"/>
      <point x="336" y="5"/>
      <point x="375" y="-12"/>
      <point x="423" y="-12" type="curve" smooth="yes"/>
      <point x="462" y="-12"/>
      <point x="512" y="6"/>
      <point x="518" y="18" type="curve"/>
      <point x="507" y="87" type="line"/>
      <point x="478" y="68"/>
      <point x="453" y="61"/>
      <point x="430" y="61" type="curve" smooth="yes"/>
      <point x="366" y="61"/>
      <point x="321" y="127"/>
      <point x="322" y="240" type="curve"/>
      <point x="531" y="240" type="line"/>
      <point x="531" y="249"/>
      <point x="531" y="259"/>
      <point x="531" y="264" type="curve" smooth="yes"/>
      <point x="531" y="433"/>
      <point x="488" y="530"/>
      <point x="390" y="530" type="curve" smooth="yes"/>
      <point x="351" y="530"/>
      <point x="318" y="501"/>
      <point x="296" y="454" type="curve"/>
      <point x="275" y="500"/>
      <point x="235" y="530"/>
      <point x="164" y="530" type="curve" smooth="yes"/>
      <point x="126" y="530"/>
      <point x="76" y="518"/>
      <point x="70" y="509" type="curve"/>
      <point x="79" y="441" type="line"/>
      <point x="84" y="449"/>
      <point x="122" y="462"/>
      <point x="156" y="462" type="curve" smooth="yes"/>
      <point x="218" y="462"/>
      <point x="244" y="397"/>
      <point x="244" y="325" type="curve" smooth="yes"/>
      <point x="244" y="300" type="line"/>
      <point x="227" y="309"/>
      <point x="203" y="313"/>
      <point x="186" y="313" type="curve" smooth="yes"/>
      <point x="85" y="313"/>
      <point x="38" y="236"/>
      <point x="38" y="144" type="curve" smooth="yes"/>
      <point x="38" y="66"/>
      <point x="84" y="-12"/>
    </contour>
    <contour>
      <point x="188" y="57" type="curve" smooth="yes"/>
      <point x="139" y="57"/>
      <point x="115" y="105"/>
      <point x="115" y="150" type="curve" smooth="yes"/>
      <point x="115" y="206"/>
      <point x="138" y="245"/>
      <point x="192" y="245" type="curve" smooth="yes"/>
      <point x="211" y="245"/>
      <point x="225" y="239"/>
      <point x="240" y="230" type="curve"/>
      <point x="244" y="177"/>
      <point x="256" y="132"/>
      <point x="274" y="95" type="curve"/>
      <point x="253" y="73"/>
      <point x="216" y="57"/>
    </contour>
    <contour>
      <point x="324" y="309" type="line"/>
      <point x="324" y="431"/>
      <point x="363" y="461"/>
      <point x="395" y="461" type="curve" smooth="yes"/>
      <point x="416" y="461"/>
      <point x="453" y="436"/>
      <point x="453" y="309" type="curve"/>
    </contour>
  </outline>
</glyph>
<glyph name="ccedilla" format="2">
  <advance width="560"/>
  <unicode hex="00E7"/>
  <outline>
    <contour>
      <point x="286" y="-189" type="curve" smooth="yes"/>
      <point x="368" y="-189"/>
      <point x="379" y="-139"/>
      <point x="379" y="-120" type="curve" smooth="yes"/>
      <point x="379" y="-74"/>
      <point x="362" y="-59"/>
      <point x="327" y="-40" type="curve"/>
      <point x="333" y="-31"/>
      <point x="336" y="-21"/>
      <point x="342" y="-12" type="curve"/>
      <point x="396" y="-11"/>
      <point x="446" y="-4"/>
      <point x="500" y="16" type="curve"/>
      <point x="489" y="82" type="line"/>
      <point x="433" y="62"/>
      <point x="394" y="60"/>
      <point x="345" y="60" type="curve" smooth="yes"/>
      <point x="230" y="60"/>
      <point x="138" y="116"/>
      <point x="138" y="258" type="curve" smooth="yes"/>
      <point x="138" y="409"/>
      <point x="241" y="459"/>
      <point x="341" y="459" type="curve" smooth="yes"/>
      <point x="378" y="459"/>
      <point x="419" y="458"/>
      <point x="474" y="438" type="curve"/>
      <point x="492" y="507" type="line"/>
      <point x="435" y="524"/>
      <point x="386" y="530"/>
      <point x="339" y="530" type="curve" smooth="yes"/>
      <point x="197" y="530"/>
      <point x="57" y="455"/>
      <point x="57" y="258" type="curve" smooth="yes"/>
      <point x="57" y="91"/>
      <point x="154" y="6"/>
      <point x="287" y="-10" type="curve"/>
      <point x="276" y="-32"/>
      <point x="264" y="-59"/>
      <point x="257" y="-75" type="curve"/>
      <point x="288" y="-86"/>
      <point x="302" y="-96"/>
      <point x="302" y="-111" type="curve" smooth="yes"/>
      <point x="302" y="-123"/>
      <point x="293" y="-132"/>
      <point x="271" y="-132" type="curve" smooth="yes"/>
      <point x="248" y="-132"/>
      <point x="233" y="-128"/>
      <point x="216" y="-122" type="curve"/>
      <point x="205" y="-175" type="line"/>
      <point x="220" y="-182"/>
      <point x="252" y="-189"/>
    </contour>
  </outline>
</glyph>
<glyph name="divide" format="2">
  <advance width="560"/>
  <unicode hex="00F7"/>
  <outline>
    <contour>
      <point x="54" y="260" type="line"/>
      <point x="509" y="260" type="line"/>
      <point x="509" y="329" type="line"/>
      <point x="54" y="329" type="line"/>
    </contour>
    <contour>
      <point x="279" y="50" type="curve" smooth="yes"/>
      <point x="318" y="50"/>
      <point x="341" y="83"/>
      <point x="341" y="114" type="curve" smooth="yes"/>
      <point x="341" y="145"/>
      <point x="318" y="179"/>
      <point x="279" y="179" type="curve" smooth="yes"/>
      <point x="240" y="179"/>
      <point x="216" y="145"/>
      <point x="216" y="114" type="curve" smooth="yes"/>
      <point x="216" y="83"/>
      <point x="240" y="50"/>
    </contour>
    <contour>
      <point x="279" y="410" type="curve" smooth="yes"/>
      <point x="318" y="410"/>
      <point x="341" y="444"/>
      <point x="341" y="474" type="curve" smooth="yes"/>
      <point x="341" y="506"/>
      <point x="318" y="538"/>
      <point x="279" y="538" type="curve" smooth="yes"/>
      <point x="240" y="538"/>
      <point x="216" y="506"/>
      <point x="216" y="474" type="curve" smooth="yes"/>
      <point x="216" y="444"/>
      <point x="240" y="410"/>
    </contour>
  </outline>
</glyph>
<glyph name="ij" format="2">
  <advance width="560"/>
  <unicode hex="0133"/>
  <outline>
    <contour>
      <point x="254" y="-188" type="curve" smooth="yes"/>
      <point x="367" y="-188"/>
      <point x="429" y="-124"/>
      <point x="429" y="7" type="curve" smooth="yes"/>
      <point x="429" y="518" type="line"/>
      <point x="351" y="518" type="line"/>
      <point x="351" y="7" type="line" smooth="yes"/>
      <point x="351" y="-76"/>
      <point x="323" y="-120"/>
      <point x="253" y="-120" type="curve" smooth="yes"/>
      <point x="241" y="-120"/>
      <point x="220" y="-116"/>
      <point x="210" y="-113" type="curve"/>
      <point x="200" y="-177" type="line"/>
      <point x="212" y="-183"/>
      <point x="239" y="-188"/>
    </contour>
    <contour>
      <point x="133" y="0" type="line"/>
      <point x="211" y="0" type="line"/>
      <point x="211" y="518" type="line"/>
      <point x="133" y="518" type="line"/>
    </contour>
    <contour>
      <point x="172" y="612" type="curve" smooth="yes"/>
      <point x="206" y="612"/>
      <point x="232" y="637"/>
      <point x="232" y="674" type="curve" smooth="yes"/>
      <point x="232" y="711"/>
      <point x="206" y="736"/>
      <point x="172" y="736" type="curve" smooth="yes"/>
      <point x="138" y="736"/>
      <point x="111" y="711"/>
      <point x="111" y="674" type="curve" smooth="yes"/>
      <point x="111" y="637"/>
      <point x="138" y="612"/>
    </contour>
    <contour>
      <point x="390" y="612" type="curve" smooth="yes"/>
      <point x="424" y="612"/>
      <point x="451" y="637"/>
      <point x="451" y="674" type="curve" smooth="yes"/>
      <point x="451" y="711"/>
      <point x="424" y="736"/>
      <point x="390" y="736" type="curve" smooth="yes"/>
      <point x="357" y="736"/>
      <point x="330" y="711"/>
      <point x="330" y="674" type="curve" smooth="yes"/>
      <point x="330" y="637"/>
      <point x="357" y="612"/>
    </contour>
  </outline>
</glyph>
<glyph name="OE" format="2">
  <advance width="560"/>
  <unicode hex="0152"/>
  <anchor x="280" y="0" name="bottom"/>
  <anchor x="280" y="685" name="top"/>
  <outline>
    <contour>
      <point x="245" y="-7" type="curve" smooth="yes"/>
      <point x="266" y="-7"/>
      <point x="287" y="-4"/>
      <point x="309" y="0" type="curve"/>
      <point x="537" y="0" type="line"/>
      <point x="537" y="67" type="line"/>
      <point x="373" y="67" type="line"/>
      <point x="373" y="328" type="line"/>
      <point x="497" y="328" type="line"/>
      <point x="497" y="395" type="line"/>
      <point x="373" y="395" type="line"/>
      <point x="373" y="626" type="line"/>
      <point x="522" y="626" type="line"/>
      <point x="522" y="693" type="line"/>
      <point x="308" y="693" type="line"/>
      <point x="288" y="697"/>
      <point x="260" y="700"/>
      <point x="247" y="700" type="curve" smooth="yes"/>
      <point x="117" y="700"/>
      <point x="33" y="569"/>
      <point x="33" y="334" type="curve" smooth="yes"/>
      <point x="33" y="99"/>
      <point x="117" y="-7"/>
    </contour>
    <contour>
      <point x="245" y="61" type="curve" smooth="yes"/>
      <point x="164" y="61"/>
      <point x="111" y="154"/>
      <point x="111" y="334" type="curve" smooth="yes"/>
      <point x="111" y="516"/>
      <point x="165" y="632"/>
      <point x="245" y="632" type="curve" smooth="yes"/>
      <point x="259" y="632"/>
      <point x="276" y="631"/>
      <point x="298" y="624" type="curve"/>
      <point x="298" y="69" type="line"/>
      <point x="294" y="69"/>
      <point x="280" y="61"/>
    </contour>
  </outline>
</glyph>
<glyph name="oe" format="2">
  <advance width="560"/>
  <unicode hex="0153"/>
  <anchor x="280" y="0" name="bottom"/>
  <anchor x="280" y="582" name="top"/>
  <outline>
    <contour>
      <point x="173" y="-12" type="curve" smooth="yes"/>
      <point x="240" y="-12"/>
      <point x="267" y="20"/>
      <point x="292" y="97" type="curve"/>
      <point x="324" y="11"/>
      <point x="373" y="-12"/>
      <point x="423" y="-12" type="curve" smooth="yes"/>
      <point x="452" y="-12"/>
      <point x="490" y="-4"/>
      <point x="518" y="18" type="curve"/>
      <point x="507" y="87" type="line"/>
      <point x="471" y="64"/>
      <point x="452" y="61"/>
      <point x="435" y="61" type="curve" smooth="yes"/>
      <point x="362" y="61"/>
      <point x="334" y="157"/>
      <point x="335" y="240" type="curve"/>
      <point x="531" y="240" type="line"/>
      <point x="532" y="254"/>
      <point x="531" y="258"/>
      <point x="531" y="264" type="curve" smooth="yes"/>
      <point x="531" y="435"/>
      <point x="490" y="530"/>
      <point x="401" y="530" type="curve" smooth="yes"/>
      <point x="357" y="530"/>
      <point x="319" y="497"/>
      <point x="292" y="420" type="curve"/>
      <point x="274" y="498"/>
      <point x="233" y="530"/>
      <point x="173" y="530" type="curve" smooth="yes"/>
      <point x="74" y="530"/>
      <point x="38" y="382"/>
      <point x="38" y="261" type="curve" smooth="yes"/>
      <point x="38" y="137"/>
      <point x="79" y="-12"/>
    </contour>
    <contour>
      <point x="190" y="59" type="curve" smooth="yes"/>
      <point x="134" y="59"/>
      <point x="117" y="175"/>
      <point x="117" y="265" type="curve" smooth="yes"/>
      <point x="117" y="353"/>
      <point x="132" y="460"/>
      <point x="183" y="460" type="curve" smooth="yes"/>
      <point x="237" y="460"/>
      <point x="252" y="344"/>
      <point x="252" y="254" type="curve" smooth="yes"/>
      <point x="252" y="166"/>
      <point x="240" y="59"/>
    </contour>
    <contour>
      <point x="337" y="309" type="line"/>
      <point x="337" y="402"/>
      <point x="365" y="461"/>
      <point x="401" y="461" type="curve" smooth="yes"/>
      <point x="429" y="461"/>
      <point x="453" y="406"/>
      <point x="453" y="309" type="curve"/>
    </contour>
  </outline>
</glyph>
<glyph name="uogonek" format="2">
  <advance width="560"/>
  <unicode hex="0173"/>
  <outline>
    <contour>
      <point x="424" y="-186" type="curve" smooth="yes"/>
      <point x="446" y="-186"/>
      <point x="465" y="-183"/>
      <point x="478" y="-176" type="curve"/>
      <point x="472" y="-116" type="line"/>
      <point x="459" y="-121"/>
      <point x="441" y="-123"/>
      <point x="433" y="-123" type="curve" smooth="yes"/>
      <point x="405" y="-123"/>
      <point x="390" y="-114"/>
      <point x="390" y="-94" type="curve" smooth="yes"/>
      <point x="390" y="-57"/>
      <point x="461" y="-3"/>
      <point x="477" y="14" type="curve"/>
      <point x="477" y="518" type="line"/>
      <point x="399" y="518" type="line"/>
      <point x="399" y="71" type="line"/>
      <point x="390" y="67"/>
      <point x="339" y="60"/>
      <point x="293" y="60" type="curve" smooth="yes"/>
      <point x="197" y="60"/>
      <point x="157" y="110"/>
      <point x="157" y="247" type="curve" smooth="yes"/>
      <point x="157" y="518" type="line"/>
      <point x="79" y="518" type="line"/>
      <point x="79" y="225" type="line" smooth="yes"/>
      <point x="79" y="86"/>
      <point x="133" y="-11"/>
      <point x="284" y="-11" type="curve" smooth="yes"/>
      <point x="309" y="-11"/>
      <point x="349" y="-7"/>
      <point x="386" y="-3" type="curve"/>
      <point x="363" y="-15"/>
      <point x="311" y="-67"/>
      <point x="311" y="-109" type="curve" smooth="yes"/>
      <point x="311" y="-158"/>
      <point x="348" y="-186"/>
    </contour>
  </outline>
</glyph>
<glyph name="Bhook" format="2">
  <advance width="560"/>
  <unicode hex="0181"/>
  <outline>
    <contour>
      <point x="322" y="-5" type="curve" smooth="yes"/>
      <point x="470" y="-5"/>
      <point x="539" y="55"/>
      <point x="539" y="205" type="curve" smooth="yes"/>
      <point x="539" y="296"/>
      <point x="487" y="350"/>
      <point x="412" y="371" type="curve"/>
      <point x="468" y="388"/>
      <point x="507" y="452"/>
      <point x="507" y="518" type="curve" smooth="yes"/>
      <point x="507" y="662"/>
      <point x="419" y="700"/>
      <point x="332" y="700" type="curve" smooth="yes"/>
      <point x="181" y="698"/>
      <point x="26" y="696"/>
      <point x="26" y="540" type="curve" smooth="yes"/>
      <point x="26" y="522"/>
      <point x="31" y="503"/>
      <point x="32" y="501" type="curve"/>
      <point x="99" y="509" type="line"/>
      <point x="98" y="521"/>
      <point x="98" y="533"/>
      <point x="98" y="539" type="curve" smooth="yes"/>
      <point x="98" y="586"/>
      <point x="121" y="609"/>
      <point x="180" y="618" type="curve"/>
      <point x="180" y="12" type="line"/>
      <point x="215" y="1"/>
      <point x="285" y="-5"/>
    </contour>
    <contour>
      <point x="319" y="60" type="curve" smooth="yes"/>
      <point x="301" y="60"/>
      <point x="283" y="62"/>
      <point x="265" y="64" type="curve"/>
      <point x="265" y="330" type="line"/>
      <point x="297" y="330" type="line"/>
      <point x="375" y="330"/>
      <point x="454" y="305"/>
      <point x="454" y="200" type="curve" smooth="yes"/>
      <point x="454" y="86"/>
      <point x="393" y="60"/>
    </contour>
    <contour>
      <point x="265" y="395" type="line"/>
      <point x="265" y="627" type="line"/>
      <point x="282" y="632"/>
      <point x="295" y="631"/>
      <point x="309" y="631" type="curve" smooth="yes"/>
      <point x="384" y="631"/>
      <point x="422" y="596"/>
      <point x="422" y="513" type="curve" smooth="yes"/>
      <point x="422" y="412"/>
      <point x="345" y="395"/>
      <point x="289" y="395" type="curve" smooth="yes"/>
    </contour>
  </outline>
</glyph>
<glyph name="deltaturned" format="2">
  <advance width="560"/>
  <unicode hex="018D"/>
  <outline>
    <contour>
      <point x="239" y="-184" type="curve" smooth="yes"/>
      <point x="352" y="-184"/>
      <point x="423" y="-155"/>
      <point x="423" y="-79" type="curve" smooth="yes"/>
      <point x="423" y="-20"/>
      <point x="387" y="15"/>
      <point x="341" y="42" type="curve"/>
      <point x="460" y="87"/>
      <point x="511" y="184"/>
      <point x="511" y="288" type="curve" smooth="yes"/>
      <point x="511" y="414"/>
      <point x="449" y="530"/>
      <point x="280" y="530" type="curve" smooth="yes"/>
      <point x="101" y="530"/>
      <point x="47" y="401"/>
      <point x="47" y="300" type="curve" smooth="yes"/>
      <point x="47" y="137"/>
      <point x="154" y="85"/>
      <point x="262" y="13" type="curve" smooth="yes"/>
      <point x="312" y="-20"/>
      <point x="345" y="-49"/>
      <point x="345" y="-85" type="curve" smooth="yes"/>
      <point x="345" y="-118"/>
      <point x="277" y="-121"/>
      <point x="237" y="-121" type="curve" smooth="yes"/>
      <point x="167" y="-121"/>
      <point x="104" y="-98"/>
      <point x="99" y="-94" type="curve"/>
      <point x="85" y="-160" type="line"/>
      <point x="103" y="-165"/>
      <point x="172" y="-184"/>
    </contour>
    <contour>
      <point x="267" y="83" type="curve"/>
      <point x="196" y="124"/>
      <point x="129" y="177"/>
      <point x="129" y="294" type="curve" smooth="yes"/>
      <point x="129" y="381"/>
      <point x="173" y="458"/>
      <point x="279" y="458" type="curve" smooth="yes"/>
      <point x="395" y="458"/>
      <point x="429" y="372"/>
      <point x="429" y="288" type="curve" smooth="yes"/>
      <point x="429" y="203"/>
      <point x="393" y="117"/>
    </contour>
  </outline>
</glyph>
<glyph name="phook" format="2">
  <advance width="560"/>
  <unicode hex="01A5"/>
  <anchor x="280" y="0" name="bottom"/>
  <anchor x="280" y="582" name="top"/>
  <outline>
    <contour>
      <point x="83" y="-185" type="line"/>
      <point x="161" y="-185" type="line"/>
      <point x="161" y="22" type="line"/>
      <point x="178" y="6"/>
      <point x="224" y="-12"/>
      <point x="285" y="-12" type="curve" smooth="yes"/>
      <point x="425" y="-12"/>
      <point x="512" y="101"/>
      <point x="512" y="258" type="curve" smooth="yes"/>
      <point x="512" y="425"/>
      <point x="407" y="529"/>
      <point x="277" y="529" type="curve" smooth="yes"/>
      <point x="239" y="529"/>
      <point x="200" y="520"/>
      <point x="161" y="504" type="curve"/>
      <point x="161" y="610" type="line" smooth="yes"/>
      <point x="161" y="670"/>
      <point x="176" y="711"/>
      <point x="230" y="711" type="curve" smooth="yes"/>
      <point x="239" y="711"/>
      <point x="263" y="710"/>
      <point x="273" y="707" type="curve"/>
      <point x="279" y="769" type="line"/>
      <point x="270" y="771"/>
      <point x="241" y="776"/>
      <point x="223" y="776" type="curve" smooth="yes"/>
      <point x="97" y="776"/>
      <point x="83" y="706"/>
      <point x="83" y="589" type="curve" smooth="yes"/>
    </contour>
    <contour>
      <point x="279" y="61" type="curve" smooth="yes"/>
      <point x="233" y="61"/>
      <point x="184" y="84"/>
      <point x="161" y="105" type="curve"/>
      <point x="161" y="437" type="line"/>
      <point x="177" y="443"/>
      <point x="216" y="458"/>
      <point x="266" y="458" type="curve" smooth="yes"/>
      <point x="360" y="458"/>
      <point x="431" y="388"/>
      <point x="431" y="259" type="curve" smooth="yes"/>
      <point x="431" y="149"/>
      <point x="387" y="61"/>
    </contour>
  </outline>
</glyph>
<glyph name="tpalatalhook" format="2">
  <advance width="560"/>
  <unicode hex="01AB"/>
  <outline>
    <contour>
      <point x="374" y="-187" type="curve" smooth="yes"/>
      <point x="494" y="-187"/>
      <point x="503" y="-109"/>
      <point x="503" y="7" type="curve" smooth="yes"/>
      <point x="503" y="17"/>
      <point x="499" y="65"/>
      <point x="498" y="70" type="curve"/>
      <point x="491" y="69"/>
      <point x="435" y="60"/>
      <point x="380" y="60" type="curve" smooth="yes"/>
      <point x="293" y="60"/>
      <point x="265" y="90"/>
      <point x="265" y="200" type="curve" smooth="yes"/>
      <point x="265" y="451" type="line"/>
      <point x="473" y="451" type="line"/>
      <point x="473" y="518" type="line"/>
      <point x="265" y="518" type="line"/>
      <point x="265" y="681" type="line"/>
      <point x="187" y="667" type="line"/>
      <point x="187" y="518" type="line"/>
      <point x="80" y="518" type="line"/>
      <point x="80" y="451" type="line"/>
      <point x="187" y="451" type="line"/>
      <point x="187" y="196" type="line" smooth="yes"/>
      <point x="187" y="67"/>
      <point x="208" y="-5"/>
      <point x="361" y="-5" type="curve" smooth="yes"/>
      <point x="385" y="-5"/>
      <point x="406" y="-5"/>
      <point x="426" y="-1" type="curve"/>
      <point x="428" y="-11"/>
      <point x="428" y="-13"/>
      <point x="428" y="-18" type="curve" smooth="yes"/>
      <point x="428" y="-84"/>
      <point x="416" y="-125"/>
      <point x="361" y="-125" type="curve" smooth="yes"/>
      <point x="355" y="-125"/>
      <point x="334" y="-124"/>
      <point x="330" y="-122" type="curve"/>
      <point x="324" y="-182" type="line"/>
      <point x="333" y="-183"/>
      <point x="355" y="-187"/>
    </contour>
  </outline>
</glyph>
<glyph name="Vhook" format="2">
  <advance width="560"/>
  <unicode hex="01B2"/>
  <anchor x="280" y="0" name="bottom"/>
  <anchor x="280" y="685" name="top"/>
  <outline>
    <contour>
      <point x="259" y="-15" type="curve"/>
      <point x="391" y="-15"/>
      <point x="507" y="82"/>
      <point x="507" y="362" type="curve" smooth="yes"/>
      <point x="507" y="545"/>
      <point x="450" y="696"/>
      <point x="287" y="696" type="curve" smooth="yes"/>
      <point x="268" y="696"/>
      <point x="236" y="695"/>
      <point x="233" y="693" type="curve"/>
      <point x="235" y="628" type="line"/>
      <point x="243" y="628"/>
      <point x="251" y="629"/>
      <point x="270" y="629" type="curve" smooth="yes"/>
      <point x="383" y="629"/>
      <point x="429" y="534"/>
      <point x="429" y="353" type="curve" smooth="yes"/>
      <point x="429" y="106"/>
      <point x="344" y="53"/>
      <point x="261" y="53" type="curve" smooth="yes"/>
      <point x="160" y="53"/>
      <point x="130" y="119"/>
      <point x="130" y="261" type="curve" smooth="yes"/>
      <point x="130" y="693" type="line"/>
      <point x="52" y="693" type="line"/>
      <point x="52" y="237" type="line" smooth="yes"/>
      <point x="52" y="48"/>
      <point x="139" y="-15"/>
    </contour>
  </outline>
</glyph>
<glyph name="Yhook" format="2">
  <advance width="560"/>
  <unicode hex="01B3"/>
  <anchor x="280" y="0" name="bottom"/>
  <anchor x="280" y="685" name="top"/>
  <outline>
    <contour>
      <point x="247" y="0" type="line"/>
      <point x="326" y="0" type="line"/>
      <point x="326" y="261" type="line"/>
      <point x="446" y="561" type="line" smooth="yes"/>
      <point x="470" y="621"/>
      <point x="487" y="633"/>
      <point x="506" y="633" type="curve" smooth="yes"/>
      <point x="526" y="633"/>
      <point x="546" y="621"/>
      <point x="568" y="598" type="curve"/>
      <point x="603" y="651" type="line"/>
      <point x="578" y="679"/>
      <point x="544" y="703"/>
      <point x="504" y="703" type="curve" smooth="yes"/>
      <point x="465" y="703"/>
      <point x="427" y="693"/>
      <point x="393" y="605" type="curve"/>
      <point x="281" y="334" type="line"/>
      <point x="219" y="446"/>
      <point x="137" y="587"/>
      <point x="105" y="693" type="curve"/>
      <point x="15" y="693" type="line"/>
      <point x="70" y="544"/>
      <point x="157" y="404"/>
      <point x="247" y="257" type="curve"/>
    </contour>
  </outline>
</glyph>
<glyph name="yhook" format="2">
  <advance width="560"/>
  <unicode hex="01B4"/>
  <anchor x="280" y="0" name="bottom"/>
  <anchor x="280" y="582" name="top"/>
  <outline>
    <contour>
      <point x="98" y="-188" type="curve" smooth="yes"/>
      <point x="196" y="-188"/>
      <point x="251" y="-141"/>
      <point x="300" y="-21" type="curve" smooth="yes"/>
      <point x="350" y="96"/>
      <point x="394" y="242"/>
      <point x="431" y="403" type="curve" smooth="yes"/>
      <point x="440" y="445"/>
      <point x="452" y="467"/>
      <point x="488" y="467" type="curve" smooth="yes"/>
      <point x="508" y="467"/>
      <point x="520" y="463"/>
      <point x="528" y="458" type="curve"/>
      <point x="541" y="521" type="line"/>
      <point x="519" y="528"/>
      <point x="496" y="533"/>
      <point x="473" y="533" type="curve" smooth="yes"/>
      <point x="400" y="533"/>
      <point x="372" y="487"/>
      <point x="357" y="416" type="curve" smooth="yes"/>
      <point x="326" y="278"/>
      <point x="303" y="179"/>
      <point x="268" y="77" type="curve"/>
      <point x="205" y="217"/>
      <point x="152" y="390"/>
      <point x="126" y="518" type="curve"/>
      <point x="38" y="518" type="line"/>
      <point x="81" y="332"/>
      <point x="158" y="140"/>
      <point x="235" y="-15" type="curve"/>
      <point x="202" y="-93"/>
      <point x="169" y="-122"/>
      <point x="99" y="-122" type="curve" smooth="yes"/>
      <point x="76" y="-122"/>
      <point x="47" y="-116"/>
      <point x="35" y="-110" type="curve"/>
      <point x="21" y="-173" type="line"/>
      <point x="28" y="-178"/>
      <point x="74" y="-188"/>
    </contour>
  </outline>
</glyph>
<glyph name="wynn" format="2">
  <advance width="560"/>
  <unicode hex="01BF"/>
  <outline>
    <contour>
      <point x="83" y="-185" type="line"/>
      <point x="161" y="-185" type="line"/>
      <point x="161" y="-59" type="line"/>
      <point x="353" y="0"/>
      <point x="515" y="81"/>
      <point x="515" y="297" type="curve" smooth="yes"/>
      <point x="515" y="440"/>
      <point x="423" y="529"/>
      <point x="276" y="529" type="curve" smooth="yes"/>
      <point x="188" y="529"/>
      <point x="125" y="503"/>
      <point x="83" y="490" type="curve"/>
    </contour>
    <contour>
      <point x="161" y="21" type="curve"/>
      <point x="161" y="438" type="line"/>
      <point x="182" y="446"/>
      <point x="210" y="458"/>
      <point x="274" y="458" type="curve" smooth="yes"/>
      <point x="375" y="458"/>
      <point x="434" y="399"/>
      <point x="434" y="299" type="curve" smooth="yes"/>
      <point x="434" y="120"/>
      <point x="280" y="62"/>
    </contour>
  </outline>
</glyph>
<glyph name="Dzcaron" format="2">
  <advance width="560"/>
  <unicode hex="01C5"/>
  <outline>
    <contour>
      <point x="111" y="-6" type="curve" smooth="yes"/>
      <point x="292" y="-6"/>
      <point x="300" y="233"/>
      <point x="300" y="346" type="curve" smooth="yes"/>
      <point x="300" y="547"/>
      <point x="253" y="700"/>
      <point x="117" y="700" type="curve" smooth="yes"/>
      <point x="91" y="700"/>
      <point x="66" y="698"/>
      <point x="33" y="689" type="curve"/>
      <point x="33" y="4" type="line"/>
      <point x="58" y="-2"/>
      <point x="87" y="-6"/>
    </contour>
    <contour>
      <point x="130" y="67" type="curve" smooth="yes"/>
      <point x="122" y="67"/>
      <point x="114" y="67"/>
      <point x="108" y="68" type="curve"/>
      <point x="108" y="624" type="line"/>
      <point x="114" y="625"/>
      <point x="121" y="625"/>
      <point x="127" y="625" type="curve" smooth="yes"/>
      <point x="190" y="625"/>
      <point x="225" y="528"/>
      <point x="225" y="346" type="curve" smooth="yes"/>
      <point x="225" y="157"/>
      <point x="191" y="67"/>
    </contour>
    <contour>
      <point x="351" y="0" type="line"/>
      <point x="537" y="0" type="line"/>
      <point x="537" y="70" type="line"/>
      <point x="419" y="70" type="line"/>
      <point x="450" y="214"/>
      <point x="513" y="389"/>
      <point x="537" y="455" type="curve"/>
      <point x="537" y="518" type="line"/>
      <point x="361" y="518" type="line"/>
      <point x="361" y="448" type="line"/>
      <point x="474" y="448" type="line"/>
      <point x="442" y="372"/>
      <point x="376" y="167"/>
      <point x="351" y="57" type="curve"/>
    </contour>
    <contour>
      <point x="468" y="587" type="line"/>
      <point x="566" y="682" type="line"/>
      <point x="534" y="719" type="line"/>
      <point x="468" y="662" type="line"/>
      <point x="399" y="720" type="line"/>
      <point x="366" y="681" type="line"/>
    </contour>
  </outline>
</glyph>
<glyph name="Adieresismacron" format="2">
  <advance width="560"/>
  <unicode hex="01DE"/>
  <outline>
    <contour>
      <point x="10" y="0" type="curve"/>
      <point x="89" y="0" type="line"/>
      <point x="138" y="194" type="line"/>
      <point x="416" y="194" type="line"/>
      <point x="467" y="0" type="line"/>
      <point x="550" y="0" type="line"/>
      <point x="501" y="176"/>
      <point x="427" y="450"/>
      <point x="334" y="678" type="curve"/>
      <point x="230" y="678" type="line"/>
      <point x="135" y="450"/>
      <point x="58" y="174"/>
    </contour>
    <contour>
      <point x="158" y="260" type="line"/>
      <point x="199" y="400"/>
      <point x="244" y="523"/>
      <point x="279" y="613" type="curve"/>
      <point x="313" y="530"/>
      <point x="355" y="403"/>
      <point x="395" y="260" type="curve"/>
    </contour>
    <contour>
      <point x="177" y="734" type="curve" smooth="yes"/>
      <point x="208" y="734"/>
      <point x="228" y="755"/>
      <point x="228" y="786" type="curve" smooth="yes"/>
      <point x="228" y="818"/>
      <point x="208" y="838"/>
      <point x="177" y="838" type="curve" smooth="yes"/>
      <point x="147" y="838"/>
      <point x="126" y="818"/>
      <point x="126" y="786" type="curve" smooth="yes"/>
      <point x="126" y="755"/>
      <point x="147" y="734"/>
    </contour>
    <contour>
      <point x="383" y="734" type="curve" smooth="yes"/>
      <point x="410" y="734"/>
      <point x="434" y="755"/>
      <point x="434" y="786" type="curve" smooth="yes"/>
      <point x="434" y="818"/>
      <point x="410" y="838"/>
      <point x="383" y="838" type="curve" smooth="yes"/>
      <point x="355" y="838"/>
      <point x="332" y="818"/>
      <point x="332" y="786" type="curve" smooth="yes"/>
      <point x="332" y="755"/>
      <point x="355" y="734"/>
    </contour>
    <contour>
      <point x="154" y="870" type="line"/>
      <point x="406" y="870" type="line"/>
      <point x="406" y="927" type="line"/>
      <point x="154" y="927" type="line"/>
    </contour>
  </outline>
</glyph>
<glyph name="oogonek" format="2">
  <advance width="560"/>
  <unicode hex="01EB"/>
  <anchor x="280" y="582" name="top"/>
  <outline>
    <contour>
      <point x="315" y="-186" type="curve" smooth="yes"/>
      <point x="337" y="-186"/>
      <point x="356" y="-183"/>
      <point x="369" y="-176" type="curve"/>
      <point x="363" y="-116" type="line"/>
      <point x="350" y="-121"/>
      <point x="332" y="-123"/>
      <point x="324" y="-123" type="curve" smooth="yes"/>
      <point x="296" y="-123"/>
      <point x="281" y="-114"/>
      <point x="281" y="-94" type="curve" smooth="yes"/>
      <point x="281" y="-76"/>
      <point x="288" y="-65"/>
      <point x="308" y="-42" type="curve" smooth="yes"/>
      <point x="337" y="-12"/>
      <point x="365" y="1"/>
      <point x="403" y="24" type="curve" smooth="yes"/>
      <point x="470" y="67"/>
      <point x="511" y="157"/>
      <point x="511" y="259" type="curve" smooth="yes"/>
      <point x="511" y="422"/>
      <point x="414" y="530"/>
      <point x="278" y="530" type="curve" smooth="yes"/>
      <point x="145" y="530"/>
      <point x="49" y="422"/>
      <point x="49" y="259" type="curve" smooth="yes"/>
      <point x="49" y="103"/>
      <point x="142" y="-2"/>
      <point x="264" y="-11" type="curve"/>
      <point x="242" y="-24"/>
      <point x="201" y="-67"/>
      <point x="201" y="-109" type="curve" smooth="yes"/>
      <point x="201" y="-158"/>
      <point x="239" y="-186"/>
    </contour>
    <contour>
      <point x="279" y="61" type="curve" smooth="yes"/>
      <point x="192" y="61"/>
      <point x="130" y="135"/>
      <point x="130" y="259" type="curve" smooth="yes"/>
      <point x="130" y="383"/>
      <point x="190" y="459"/>
      <point x="278" y="459" type="curve" smooth="yes"/>
      <point x="368" y="459"/>
      <point x="430" y="383"/>
      <point x="430" y="259" type="curve" smooth="yes"/>
      <point x="430" y="135"/>
      <point x="369" y="61"/>
    </contour>
  </outline>
</glyph>
<glyph name="Wynn" format="2">
  <advance width="560"/>
  <unicode hex="01F7"/>
  <outline>
    <contour>
      <point x="89" y="-185" type="line"/>
      <point x="167" y="-185" type="line"/>
      <point x="167" y="1" type="line"/>
      <point x="356" y="89"/>
      <point x="511" y="208"/>
      <point x="511" y="445" type="curve" smooth="yes"/>
      <point x="511" y="612"/>
      <point x="424" y="700"/>
      <point x="274" y="700" type="curve" smooth="yes"/>
      <point x="199" y="700"/>
      <point x="128" y="670"/>
      <point x="89" y="651" type="curve"/>
    </contour>
    <contour>
      <point x="167" y="75" type="curve"/>
      <point x="167" y="609" type="line"/>
      <point x="185" y="618"/>
      <point x="221" y="632"/>
      <point x="275" y="632" type="curve" smooth="yes"/>
      <point x="367" y="632"/>
      <point x="431" y="565"/>
      <point x="431" y="448" type="curve" smooth="yes"/>
      <point x="431" y="239"/>
      <point x="308" y="153"/>
    </contour>
  </outline>
</glyph>
<glyph name="Aringacute" format="2">
  <advance width="560"/>
  <unicode hex="01FA"/>
  <outline>
    <contour>
      <point x="10" y="0" type="curve"/>
      <point x="89" y="0" type="line"/>
      <point x="132" y="191" type="line"/>
      <point x="423" y="191" type="line"/>
      <point x="467" y="0" type="line"/>
      <point x="550" y="0" type="line"/>
      <point x="507" y="166"/>
      <point x="416" y="471"/>
      <point x="342" y="634" type="curve"/>
      <point x="360" y="648"/>
      <point x="372" y="673"/>
      <point x="372" y="702" type="curve" smooth="yes"/>
      <point x="372" y="757"/>
      <point x="329" y="790"/>
      <point x="282" y="790" type="curve" smooth="yes"/>
      <point x="231" y="790"/>
      <point x="191" y="757"/>
      <point x="191" y="702" type="curve" smooth="yes"/>
      <point x="191" y="673"/>
      <point x="202" y="649"/>
      <point x="220" y="631" type="curve"/>
      <point x="145" y="474"/>
      <point x="51" y="165"/>
    </contour>
    <contour>
      <point x="153" y="257" type="line"/>
      <point x="199" y="410"/>
      <point x="244" y="534"/>
      <point x="279" y="624" type="curve"/>
      <point x="313" y="541"/>
      <point x="359" y="409"/>
      <point x="403" y="257" type="curve"/>
    </contour>
    <contour>
      <point x="282" y="648" type="curve" smooth="yes"/>
      <point x="252" y="648"/>
      <point x="231" y="669"/>
      <point x="231" y="702" type="curve" smooth="yes"/>
      <point x="231" y="734"/>
      <point x="252" y="754"/>
      <point x="282" y="754" type="curve" smooth="yes"/>
      <point x="311" y="754"/>
      <point x="332" y="734"/>
      <point x="332" y="702" type="curve" smooth="yes"/>
      <point x="332" y="669"/>
      <point x="311" y="648"/>
    </contour>
    <contour>
      <point x="221" y="813" type="line"/>
      <point x="374" y="857" type="line"/>
      <point x="348" y="930" type="line"/>
      <point x="202" y="867" type="line"/>
    </contour>
  </outline>
</glyph>
<glyph name="Zhook" format="2">
  <advance width="560"/>
  <unicode hex="0224"/>
  <outline>
    <contour>
      <point x="371" y="-187" type="curve" smooth="yes"/>
      <point x="488" y="-187"/>
      <point x="511" y="-123"/>
      <point x="511" y="-5" type="curve" smooth="yes"/>
      <point x="511" y="67" type="line"/>
      <point x="153" y="67" type="line"/>
      <point x="242" y="241"/>
      <point x="418" y="516"/>
      <point x="502" y="630" type="curve"/>
      <point x="502" y="693" type="line"/>
      <point x="80" y="693" type="line"/>
      <point x="80" y="626" type="line"/>
      <point x="412" y="626" type="line"/>
      <point x="314" y="495"/>
      <point x="167" y="262"/>
      <point x="62" y="54" type="curve"/>
      <point x="62" y="0" type="line"/>
      <point x="428" y="0" type="line"/>
      <point x="428" y="-16" type="line" smooth="yes"/>
      <point x="428" y="-81"/>
      <point x="410" y="-119"/>
      <point x="358" y="-119" type="curve" smooth="yes"/>
      <point x="352" y="-119"/>
      <point x="330" y="-118"/>
      <point x="322" y="-115" type="curve"/>
      <point x="316" y="-180" type="line"/>
      <point x="326" y="-182"/>
      <point x="352" y="-187"/>
    </contour>
  </outline>
</glyph>
<glyph name="ncurl" format="2">
  <advance width="560"/>
  <unicode hex="0235"/>
  <outline>
    <contour>
      <point x="419" y="-185" type="curve" smooth="yes"/>
      <point x="521" y="-185"/>
      <point x="553" y="-102"/>
      <point x="553" y="-48" type="curve" smooth="yes"/>
      <point x="553" y="28"/>
      <point x="505" y="90"/>
      <point x="437" y="90" type="curve" smooth="yes"/>
      <point x="400" y="90"/>
      <point x="372" y="78"/>
      <point x="346" y="54" type="curve"/>
      <point x="346" y="324" type="line" smooth="yes"/>
      <point x="346" y="465"/>
      <point x="309" y="529"/>
      <point x="193" y="529" type="curve" smooth="yes"/>
      <point x="124" y="529"/>
      <point x="73" y="514"/>
      <point x="44" y="504" type="curve"/>
      <point x="44" y="0" type="line"/>
      <point x="130" y="0" type="line"/>
      <point x="130" y="445" type="line"/>
      <point x="134" y="447"/>
      <point x="158" y="457"/>
      <point x="183" y="457" type="curve" smooth="yes"/>
      <point x="243" y="457"/>
      <point x="261" y="429"/>
      <point x="261" y="291" type="curve" smooth="yes"/>
      <point x="261" y="44" type="line"/>
      <point x="261" y="32"/>
      <point x="263" y="-23"/>
      <point x="264" y="-36" type="curve"/>
      <point x="167" y="-156" type="line"/>
      <point x="209" y="-192" type="line"/>
      <point x="279" y="-104" type="line"/>
      <point x="303" y="-153"/>
      <point x="345" y="-185"/>
    </contour>
    <contour>
      <point x="418" y="-121" type="curve" smooth="yes"/>
      <point x="372" y="-121"/>
      <point x="346" y="-85"/>
      <point x="346" y="-38" type="curve" smooth="yes"/>
      <point x="346" y="-22" type="line"/>
      <point x="367" y="6"/>
      <point x="386" y="26"/>
      <point x="419" y="26" type="curve" smooth="yes"/>
      <point x="460" y="26"/>
      <point x="481" y="-8"/>
      <point x="481" y="-47" type="curve" smooth="yes"/>
      <point x="481" y="-86"/>
      <point x="459" y="-121"/>
    </contour>
  </outline>
</glyph>
<glyph name="qpdigraph" format="2">
  <advance width="560"/>
  <unicode hex="0239"/>
  <outline>
    <contour>
      <point x="243" y="-185" type="line"/>
      <point x="317" y="-185" type="line"/>
      <point x="317" y="24" type="line"/>
      <point x="327" y="6"/>
      <point x="353" y="-12"/>
      <point x="386" y="-12" type="curve" smooth="yes"/>
      <point x="450" y="-12"/>
      <point x="529" y="36"/>
      <point x="529" y="260" type="curve" smooth="yes"/>
      <point x="529" y="430"/>
      <point x="472" y="530"/>
      <point x="368" y="530" type="curve" smooth="yes"/>
      <point x="331" y="530"/>
      <point x="301" y="518"/>
      <point x="279" y="505" type="curve"/>
      <point x="255" y="518"/>
      <point x="222" y="530"/>
      <point x="184" y="530" type="curve" smooth="yes"/>
      <point x="94" y="530"/>
      <point x="31" y="449"/>
      <point x="31" y="260" type="curve" smooth="yes"/>
      <point x="31" y="37"/>
      <point x="107" y="-12"/>
      <point x="168" y="-12" type="curve" smooth="yes"/>
      <point x="197" y="-12"/>
      <point x="221" y="1"/>
      <point x="243" y="24" type="curve"/>
    </contour>
    <contour>
      <point x="178" y="55" type="curve" smooth="yes"/>
      <point x="137" y="55"/>
      <point x="110" y="77"/>
      <point x="110" y="263" type="curve" smooth="yes"/>
      <point x="110" y="416"/>
      <point x="151" y="463"/>
      <point x="199" y="463" type="curve" smooth="yes"/>
      <point x="209" y="463"/>
      <point x="229" y="459"/>
      <point x="243" y="449" type="curve"/>
      <point x="243" y="102" type="line"/>
      <point x="227" y="76"/>
      <point x="201" y="55"/>
    </contour>
    <contour>
      <point x="375" y="55" type="curve" smooth="yes"/>
      <point x="350" y="55"/>
      <point x="326" y="81"/>
      <point x="317" y="102" type="curve"/>
      <point x="317" y="449" type="line"/>
      <point x="323" y="455"/>
      <point x="346" y="463"/>
      <point x="368" y="463" type="curve" smooth="yes"/>
      <point x="410" y="463"/>
      <point x="451" y="416"/>
      <point x="451" y="264" type="curve" smooth="yes"/>
      <point x="451" y="78"/>
      <point x="415" y="55"/>
    </contour>
  </outline>
</glyph>
<glyph name="cstroke" format="2">
  <advance width="560"/>
  <unicode hex="023C"/>
  <outline>
    <contour>
      <point x="236" y="-83" type="line"/>
      <point x="260" y="-7" type="line"/>
      <point x="282" y="-10"/>
      <point x="304" y="-12"/>
      <point x="328" y="-12" type="curve" smooth="yes"/>
      <point x="389" y="-12"/>
      <point x="441" y="-5"/>
      <point x="498" y="16" type="curve"/>
      <point x="487" y="82" type="line"/>
      <point x="429" y="62"/>
      <point x="389" y="60"/>
      <point x="339" y="60" type="curve" smooth="yes"/>
      <point x="319" y="60"/>
      <point x="300" y="61"/>
      <point x="282" y="64" type="curve"/>
      <point x="406" y="455" type="line"/>
      <point x="425" y="454"/>
      <point x="446" y="448"/>
      <point x="472" y="440" type="curve"/>
      <point x="490" y="509" type="line"/>
      <point x="468" y="516"/>
      <point x="449" y="520"/>
      <point x="427" y="523" type="curve"/>
      <point x="451" y="595" type="line"/>
      <point x="394" y="616" type="line"/>
      <point x="366" y="528" type="line"/>
      <point x="355" y="530"/>
      <point x="344" y="530"/>
      <point x="334" y="530" type="curve" smooth="yes"/>
      <point x="188" y="530"/>
      <point x="45" y="455"/>
      <point x="45" y="258" type="curve" smooth="yes"/>
      <point x="45" y="126"/>
      <point x="108" y="44"/>
      <point x="200" y="10" type="curve"/>
      <point x="178" y="-62" type="line"/>
    </contour>
    <contour>
      <point x="223" y="81" type="line"/>
      <point x="164" y="111"/>
      <point x="126" y="167"/>
      <point x="126" y="258" type="curve" smooth="yes"/>
      <point x="126" y="410"/>
      <point x="233" y="462"/>
      <point x="345" y="460" type="curve"/>
    </contour>
  </outline>
</glyph>
<glyph name="tildecomb" format="2">
  <unicode hex="0303"/>
  <anchor x="279" y="518" name="_top"/>
  <anchor x="279" y="731" name="top"/>
  <outline>
    <contour>
      <point x="176" y="619" type="line"/>
      <point x="185" y="639"/>
      <point x="205" y="664"/>
      <point x="222" y="664" type="curve" smooth="yes"/>
      <point x="233" y="664"/>
      <point x="251" y="656"/>
      <point x="270" y="647" type="curve" smooth="yes"/>
      <point x="285" y="640"/>
      <point x="316" y="627"/>
      <point x="332" y="627" type="curve" smooth="yes"/>
      <point x="386" y="627"/>
      <point x="417" y="681"/>
      <point x="426" y="712" type="curve"/>
      <point x="382" y="731" type="line"/>
      <point x="374" y="711"/>
      <point x="352" y="685"/>
      <point x="335" y="685" type="curve" smooth="yes"/>
      <point x="327" y="685"/>
      <point x="313" y="690"/>
      <point x="295" y="700" type="curve" smooth="yes"/>
      <point x="279" y="708"/>
      <point x="244" y="724"/>
      <point x="225" y="724" type="curve" smooth="yes"/>
      <point x="172" y="724"/>
      <point x="142" y="668"/>
      <point x="132" y="639" type="curve"/>
    </contour>
  </outline>
</glyph>
<glyph name="caroncomb" format="2">
  <unicode hex="030C"/>
  <anchor x="280" y="518" name="_top"/>
  <anchor x="280" y="773" name="top"/>
  <outline>
    <contour>
      <point x="280" y="591" type="line"/>
      <point x="410" y="735" type="line"/>
      <point x="376" y="773" type="line"/>
      <point x="280" y="681" type="line"/>
      <point x="184" y="773" type="line"/>
      <point x="150" y="735" type="line"/>
    </contour>
  </outline>
</glyph>
<glyph name="dblgravecomb" format="2">
  <unicode hex="030F"/>
  <anchor x="280" y="518" name="_top"/>
  <outline>
    <contour>
      <point x="238" y="582" type="line"/>
      <point x="282" y="615" type="line"/>
      <point x="169" y="777" type="line"/>
      <point x="119" y="727" type="line"/>
    </contour>
    <contour>
      <point x="395" y="582" type="line"/>
      <point x="439" y="615" type="line"/>
      <point x="326" y="777" type="line"/>
      <point x="276" y="727" type="line"/>
    </contour>
  </outline>
</glyph>
<glyph name="commaturnedabovecomb" format="2">
  <unicode hex="0312"/>
  <anchor x="280" y="518" name="_top"/>
  <anchor x="280" y="777" name="top"/>
  <outline>
    <contour>
      <point x="214" y="612" type="curve"/>
      <point x="293" y="612" type="line"/>
      <point x="293" y="625" type="line"/>
      <point x="293" y="699"/>
      <point x="316" y="714"/>
      <point x="347" y="739" type="curve"/>
      <point x="319" y="777" type="line"/>
      <point x="237" y="760"/>
      <point x="204" y="680"/>
    </contour>
  </outline>
</glyph>
<glyph name="commaaccentcomb" format="2">
  <unicode hex="0326"/>
  <anchor x="275" y="0" name="_bottom"/>
  <anchor x="275" y="-190" name="bottom"/>
  <outline>
    <contour>
      <point x="237" y="-190" type="curve" smooth="yes"/>
      <point x="301" y="-190"/>
      <point x="353" y="-158"/>
      <point x="353" y="-69" type="curve" smooth="yes"/>
      <point x="353" y="-65"/>
      <point x="352" y="-55"/>
      <point x="351" y="-50" type="curve"/>
      <point x="267" y="-50" type="line"/>
      <point x="267" y="-67" type="line"/>
      <point x="267" y="-110"/>
      <point x="263" y="-134"/>
      <point x="210" y="-134" type="curve" smooth="yes"/>
      <point x="194" y="-134" type="line"/>
      <point x="194" y="-184" type="line"/>
      <point x="213" y="-189"/>
      <point x="224" y="-190"/>
    </contour>
  </outline>
</glyph>
<glyph name="cedillacomb" format="2">
  <unicode hex="0327"/>
  <anchor x="261" y="0" name="_bottom"/>
  <anchor x="261" y="-189" name="bottom"/>
  <outline>
    <contour>
      <point x="255" y="-189" type="curve" smooth="yes"/>
      <point x="335" y="-189"/>
      <point x="347" y="-139"/>
      <point x="347" y="-120" type="curve" smooth="yes"/>
      <point x="347" y="-74"/>
      <point x="330" y="-59"/>
      <point x="296" y="-40" type="curve"/>
      <point x="303" y="-24"/>
      <point x="319" y="3"/>
      <point x="327" y="20" type="curve"/>
      <point x="270" y="20" type="line"/>
      <point x="263" y="8"/>
      <point x="237" y="-49"/>
      <point x="225" y="-75" type="curve"/>
      <point x="229" y="-77" type="line" smooth="yes"/>
      <point x="255" y="-85"/>
      <point x="271" y="-96"/>
      <point x="271" y="-111" type="curve" smooth="yes"/>
      <point x="271" y="-123"/>
      <point x="262" y="-132"/>
      <point x="238" y="-132" type="curve" smooth="yes"/>
      <point x="216" y="-132"/>
      <point x="202" y="-128"/>
      <point x="184" y="-122" type="curve"/>
      <point x="174" y="-175" type="line"/>
      <point x="189" y="-182"/>
      <point x="219" y="-189"/>
    </contour>
  </outline>
</glyph>
<glyph name="tildebelowcomb" format="2">
  <unicode hex="0330"/>
  <anchor x="280" y="0" name="_bottom"/>
  <anchor x="280" y="-180" name="bottom"/>
  <outline>
    <contour>
      <point x="177" y="-180" type="line"/>
      <point x="186" y="-160"/>
      <point x="206" y="-135"/>
      <point x="223" y="-135" type="curve" smooth="yes"/>
      <point x="234" y="-135"/>
      <point x="252" y="-143"/>
      <point x="271" y="-152" type="curve" smooth="yes"/>
      <point x="286" y="-159"/>
      <point x="317" y="-172"/>
      <point x="333" y="-172" type="curve" smooth="yes"/>
      <point x="387" y="-172"/>
      <point x="418" y="-118"/>
      <point x="427" y="-87" type="curve"/>
      <point x="383" y="-68" type="line"/>
      <point x="375" y="-88"/>
      <point x="353" y="-114"/>
      <point x="336" y="-114" type="curve" smooth="yes"/>
      <point x="328" y="-114"/>
      <point x="314" y="-109"/>
      <point x="296" y="-99" type="curve" smooth="yes"/>
      <point x="280" y="-91"/>
      <point x="245" y="-75"/>
      <point x="226" y="-75" type="curve" smooth="yes"/>
      <point x="173" y="-75"/>
      <point x="143" y="-131"/>
      <point x="133" y="-160" type="curve"/>
    </contour>
  </outline>
</glyph>
<glyph name="Lambda" format="2">
  <advance width="560"/>
  <unicode hex="039B"/>
  <outline>
    <contour>
      <point x="10" y="0" type="curve"/>
      <point x="89" y="0" type="line"/>
      <point x="155" y="314"/>
      <point x="258" y="586"/>
      <point x="279" y="629" type="curve"/>
      <point x="297" y="583"/>
      <point x="400" y="327"/>
      <point x="464" y="0" type="curve"/>
      <point x="550" y="0" type="line"/>
      <point x="507" y="170"/>
      <point x="417" y="482"/>
      <point x="334" y="693" type="curve"/>
      <point x="230" y="693" type="line"/>
      <point x="134" y="450"/>
      <point x="81" y="265"/>
    </contour>
  </outline>
</glyph>
<glyph name="Mu" format="2">
  <advance width="560"/>
  <unicode hex="039C"/>
  <outline>
    <contour>
      <point x="42" y="0" type="curve"/>
      <point x="120" y="0" type="line"/>
      <point x="124" y="156"/>
      <point x="132" y="409"/>
      <point x="134" y="607" type="curve"/>
      <point x="236" y="268" type="line"/>
      <point x="325" y="268" type="line"/>
      <point x="423" y="607" type="line"/>
      <point x="432" y="407"/>
      <point x="436" y="156"/>
      <point x="443" y="0" type="curve"/>
      <point x="520" y="0" type="line"/>
      <point x="508" y="251"/>
      <point x="498" y="536"/>
      <point x="481" y="693" type="curve"/>
      <point x="383" y="693" type="line"/>
      <point x="346" y="563"/>
      <point x="314" y="454"/>
      <point x="281" y="337" type="curve"/>
      <point x="246" y="457"/>
      <point x="215" y="563"/>
      <point x="177" y="693" type="curve"/>
      <point x="79" y="693" type="line"/>
      <point x="58" y="453"/>
      <point x="51" y="243"/>
    </contour>
  </outline>
</glyph>
<glyph name="Xi" format="2">
  <advance width="560"/>
  <unicode hex="039E"/>
  <outline>
    <contour>
      <point x="43" y="0" type="line"/>
      <point x="518" y="0" type="line"/>
      <point x="518" y="69" type="line"/>
      <point x="43" y="69" type="line"/>
    </contour>
    <contour>
      <point x="100" y="328" type="line"/>
      <point x="460" y="328" type="line"/>
      <point x="460" y="398" type="line"/>
      <point x="100" y="398" type="line"/>
    </contour>
    <contour>
      <point x="57" y="625" type="line"/>
      <point x="506" y="625" type="line"/>
      <point x="506" y="693" type="line"/>
      <point x="57" y="693" type="line"/>
    </contour>
  </outline>
</glyph>
<glyph name="Sigma" format="2">
  <advance width="560"/>
  <unicode hex="03A3"/>
  <outline>
    <contour>
      <point x="49" y="0" type="line"/>
      <point x="494" y="0" type="line"/>
      <point x="494" y="67" type="line"/>
      <point x="126" y="67" type="line"/>
      <point x="194" y="166"/>
      <point x="267" y="253"/>
      <point x="350" y="364" type="curve"/>
      <point x="272" y="467"/>
      <point x="189" y="573"/>
      <point x="155" y="626" type="curve"/>
      <point x="493" y="626" type="line"/>
      <point x="493" y="693" type="line"/>
      <point x="63" y="693" type="line"/>
      <point x="63" y="639" type="line"/>
      <point x="105" y="571"/>
      <point x="181" y="469"/>
      <point x="263" y="363" type="curve"/>
      <point x="181" y="251"/>
      <point x="96" y="152"/>
      <point x="49" y="68" type="curve"/>
    </contour>
  </outline>
</glyph>
<glyph name="Psi" format="2">
  <advance width="560"/>
  <unicode hex="03A8"/>
  <outline>
    <contour>
      <point x="243" y="0" type="line"/>
      <point x="317" y="0" type="line"/>
      <point x="317" y="181" type="line"/>
      <point x="464" y="178"/>
      <point x="506" y="297"/>
      <point x="506" y="461" type="curve" smooth="yes"/>
      <point x="506" y="693" type="line"/>
      <point x="419" y="693" type="line"/>
      <point x="419" y="470" type="line" smooth="yes"/>
      <point x="419" y="315"/>
      <point x="397" y="251"/>
      <point x="317" y="251" type="curve"/>
      <point x="317" y="532" type="line"/>
      <point x="243" y="532" type="line"/>
      <point x="243" y="251" type="line"/>
      <point x="163" y="251"/>
      <point x="141" y="315"/>
      <point x="141" y="470" type="curve" smooth="yes"/>
      <point x="141" y="693" type="line"/>
      <point x="54" y="693" type="line"/>
      <point x="54" y="461" type="line" smooth="yes"/>
      <point x="54" y="297"/>
      <point x="99" y="178"/>
      <point x="243" y="181" type="curve"/>
    </contour>
  </outline>
</glyph>
<glyph name="Omega" format="2">
  <advance width="560"/>
  <unicode hex="03A9"/>
  <anchor x="280" y="0" name="bottom"/>
  <anchor x="22" y="776" name="topleft"/>
  <outline>
    <contour>
      <point x="23" y="0" type="line"/>
      <point x="240" y="0" type="line"/>
      <point x="240" y="58" type="line"/>
      <point x="164" y="140"/>
      <point x="122" y="286"/>
      <point x="122" y="404" type="curve" smooth="yes"/>
      <point x="122" y="533"/>
      <point x="174" y="641"/>
      <point x="281" y="641" type="curve" smooth="yes"/>
      <point x="387" y="641"/>
      <point x="440" y="533"/>
      <point x="440" y="404" type="curve" smooth="yes"/>
      <point x="440" y="286"/>
      <point x="400" y="140"/>
      <point x="322" y="58" type="curve"/>
      <point x="322" y="0" type="line"/>
      <point x="537" y="0" type="line"/>
      <point x="537" y="67" type="line"/>
      <point x="408" y="67" type="line"/>
      <point x="479" y="159"/>
      <point x="518" y="283"/>
      <point x="518" y="396" type="curve" smooth="yes"/>
      <point x="518" y="545"/>
      <point x="453" y="709"/>
      <point x="281" y="709" type="curve" smooth="yes"/>
      <point x="110" y="709"/>
      <point x="43" y="545"/>
      <point x="43" y="396" type="curve" smooth="yes"/>
      <point x="43" y="283"/>
      <point x="81" y="159"/>
      <point x="153" y="67" type="curve"/>
      <point x="23" y="67" type="line"/>
    </contour>
  </outline>
</glyph>
<glyph name="theta" format="2">
  <advance width="560"/>
  <unicode hex="03B8"/>
  <outline>
    <contour>
      <point x="280" y="-16" type="curve" smooth="yes"/>
      <point x="429" y="-16"/>
      <point x="499" y="142"/>
      <point x="499" y="379" type="curve" smooth="yes"/>
      <point x="499" y="617"/>
      <point x="429" y="776"/>
      <point x="280" y="776" type="curve" smooth="yes"/>
      <point x="131" y="776"/>
      <point x="61" y="617"/>
      <point x="61" y="379" type="curve" smooth="yes"/>
      <point x="61" y="142"/>
      <point x="131" y="-16"/>
    </contour>
    <contour>
      <point x="280" y="52" type="curve" smooth="yes"/>
      <point x="183" y="52"/>
      <point x="144" y="173"/>
      <point x="141" y="358" type="curve"/>
      <point x="419" y="358" type="line"/>
      <point x="415" y="173"/>
      <point x="377" y="52"/>
    </contour>
    <contour>
      <point x="141" y="422" type="line"/>
      <point x="149" y="595"/>
      <point x="185" y="708"/>
      <point x="280" y="708" type="curve" smooth="yes"/>
      <point x="372" y="708"/>
      <point x="415" y="595"/>
      <point x="419" y="422" type="curve"/>
    </contour>
  </outline>
</glyph>
<glyph name="kappa" format="2">
  <advance width="560"/>
  <unicode hex="03BA"/>
  <outline>
    <contour>
      <point x="83" y="0" type="line"/>
      <point x="161" y="0" type="line"/>
      <point x="161" y="250" type="line"/>
      <point x="242" y="202"/>
      <point x="376" y="98"/>
      <point x="437" y="0" type="curve"/>
      <point x="532" y="0" type="line"/>
      <point x="475" y="95"/>
      <point x="331" y="227"/>
      <point x="251" y="283" type="curve"/>
      <point x="344" y="360"/>
      <point x="445" y="440"/>
      <point x="512" y="518" type="curve"/>
      <point x="421" y="518" type="line"/>
      <point x="348" y="438"/>
      <point x="252" y="372"/>
      <point x="161" y="297" type="curve"/>
      <point x="161" y="520" type="line"/>
      <point x="83" y="520" type="line"/>
    </contour>
  </outline>
</glyph>
<glyph name="lambda" format="2">
  <advance width="560"/>
  <unicode hex="03BB"/>
  <outline>
    <contour>
      <point x="35" y="0" type="curve"/>
      <point x="109" y="0" type="line"/>
      <point x="139" y="114"/>
      <point x="203" y="300"/>
      <point x="291" y="450" type="curve"/>
      <point x="348" y="304"/>
      <point x="399" y="142"/>
      <point x="434" y="0" type="curve"/>
      <point x="521" y="0" type="line"/>
      <point x="472" y="179"/>
      <point x="388" y="403"/>
      <point x="289" y="641" type="curve" smooth="yes"/>
      <point x="257" y="717"/>
      <point x="218" y="776"/>
      <point x="131" y="776" type="curve" smooth="yes"/>
      <point x="100" y="776"/>
      <point x="73" y="772"/>
      <point x="73" y="770" type="curve"/>
      <point x="82" y="707" type="line"/>
      <point x="87" y="709"/>
      <point x="101" y="712"/>
      <point x="120" y="712" type="curve" smooth="yes"/>
      <point x="188" y="712"/>
      <point x="209" y="647"/>
      <point x="254" y="534" type="curve"/>
      <point x="159" y="358"/>
      <point x="70" y="136"/>
    </contour>
  </outline>
</glyph>
<glyph name="tau" format="2">
  <advance width="560"/>
  <unicode hex="03C4"/>
  <outline>
    <contour>
      <point x="369" y="-12" type="curve" smooth="yes"/>
      <point x="410" y="-12"/>
      <point x="449" y="-4"/>
      <point x="494" y="16" type="curve"/>
      <point x="483" y="82" type="line"/>
      <point x="454" y="69"/>
      <point x="421" y="60"/>
      <point x="380" y="60" type="curve" smooth="yes"/>
      <point x="291" y="60"/>
      <point x="265" y="89"/>
      <point x="265" y="201" type="curve" smooth="yes"/>
      <point x="265" y="451" type="line"/>
      <point x="473" y="451" type="line"/>
      <point x="473" y="518" type="line"/>
      <point x="80" y="518" type="line"/>
      <point x="80" y="451" type="line"/>
      <point x="187" y="451" type="line"/>
      <point x="187" y="190" type="line" smooth="yes"/>
      <point x="187" y="30"/>
      <point x="243" y="-12"/>
    </contour>
  </outline>
</glyph>
<glyph name="upsilon" format="2">
  <advance width="560"/>
  <unicode hex="03C5"/>
  <anchor x="280" y="582" name="top"/>
  <outline>
    <contour>
      <point x="279" y="-10" type="curve" smooth="yes"/>
      <point x="442" y="-10"/>
      <point x="471" y="122"/>
      <point x="471" y="224" type="curve" smooth="yes"/>
      <point x="471" y="518" type="line"/>
      <point x="394" y="518" type="line"/>
      <point x="394" y="226" type="line" smooth="yes"/>
      <point x="394" y="101"/>
      <point x="351" y="56"/>
      <point x="279" y="56" type="curve" smooth="yes"/>
      <point x="207" y="56"/>
      <point x="165" y="101"/>
      <point x="165" y="226" type="curve" smooth="yes"/>
      <point x="165" y="518" type="line"/>
      <point x="87" y="518" type="line"/>
      <point x="87" y="224" type="line" smooth="yes"/>
      <point x="87" y="122"/>
      <point x="116" y="-10"/>
    </contour>
  </outline>
</glyph>
<glyph name="E-cy" format="2">
  <advance width="560"/>
  <unicode hex="0404"/>
  <outline>
    <contour>
      <point x="335" y="-15" type="curve" smooth="yes"/>
      <point x="436" y="-15"/>
      <point x="497" y="20"/>
      <point x="512" y="30" type="curve"/>
      <point x="492" y="94" type="line"/>
      <point x="470" y="77"/>
      <point x="397" y="53"/>
      <point x="344" y="53" type="curve" smooth="yes"/>
      <point x="212" y="53"/>
      <point x="132" y="158"/>
      <point x="122" y="323" type="curve"/>
      <point x="387" y="323" type="line"/>
      <point x="387" y="387" type="line"/>
      <point x="123" y="387" type="line"/>
      <point x="133" y="530"/>
      <point x="194" y="641"/>
      <point x="337" y="641" type="curve" smooth="yes"/>
      <point x="413" y="641"/>
      <point x="468" y="617"/>
      <point x="492" y="605" type="curve"/>
      <point x="511" y="666" type="line"/>
      <point x="482" y="684"/>
      <point x="415" y="709"/>
      <point x="326" y="709" type="curve" smooth="yes"/>
      <point x="154" y="709"/>
      <point x="47" y="580"/>
      <point x="47" y="347" type="curve" smooth="yes"/>
      <point x="47" y="115"/>
      <point x="172" y="-15"/>
    </contour>
  </outline>
</glyph>
<glyph name="Tshe-cy" format="2">
  <advance width="560"/>
  <unicode hex="040B"/>
  <outline>
    <contour>
      <point x="117" y="0" type="line"/>
      <point x="195" y="0" type="line"/>
      <point x="195" y="354" type="line"/>
      <point x="210" y="359"/>
      <point x="261" y="371"/>
      <point x="307" y="371" type="curve" smooth="yes"/>
      <point x="390" y="371"/>
      <point x="419" y="318"/>
      <point x="419" y="185" type="curve" smooth="yes"/>
      <point x="419" y="0" type="line"/>
      <point x="498" y="0" type="line"/>
      <point x="498" y="183" type="line" smooth="yes"/>
      <point x="498" y="336"/>
      <point x="472" y="436"/>
      <point x="316" y="436" type="curve" smooth="yes"/>
      <point x="269" y="436"/>
      <point x="213" y="425"/>
      <point x="195" y="417" type="curve"/>
      <point x="195" y="626" type="line"/>
      <point x="415" y="626" type="line"/>
      <point x="415" y="693" type="line"/>
      <point x="20" y="693" type="line"/>
      <point x="20" y="626" type="line"/>
      <point x="117" y="626" type="line"/>
    </contour>
  </outline>
</glyph>
<glyph name="De-cy" format="2">
  <advance width="560"/>
  <unicode hex="0414"/>
  <outline>
    <contour>
      <point x="21" y="-185" type="line"/>
      <point x="97" y="-185" type="line"/>
      <point x="97" y="0" type="line"/>
      <point x="451" y="0" type="line"/>
      <point x="451" y="-185" type="line"/>
      <point x="527" y="-185" type="line"/>
      <point x="527" y="67" type="line"/>
      <point x="482" y="67" type="line"/>
      <point x="482" y="693" type="line"/>
      <point x="182" y="693" type="line"/>
      <point x="178" y="616" type="line" smooth="yes"/>
      <point x="166" y="379"/>
      <point x="174" y="216"/>
      <point x="61" y="67" type="curve"/>
      <point x="21" y="67" type="line"/>
    </contour>
    <contour>
      <point x="162" y="67" type="line"/>
      <point x="247" y="211"/>
      <point x="247" y="369"/>
      <point x="255" y="534" type="curve"/>
      <point x="258" y="626" type="line"/>
      <point x="404" y="626" type="line"/>
      <point x="404" y="67" type="line"/>
    </contour>
  </outline>
</glyph>
<glyph name="Ef-cy" format="2">
  <advance width="560"/>
  <unicode hex="0424"/>
  <outline>
    <contour>
      <point x="251" y="0" type="line"/>
      <point x="325" y="0" type="line"/>
      <point x="325" y="89" type="line"/>
      <point x="439" y="106"/>
      <point x="522" y="195"/>
      <point x="522" y="372" type="curve" smooth="yes"/>
      <point x="522" y="548"/>
      <point x="439" y="636"/>
      <point x="325" y="652" type="curve"/>
      <point x="325" y="738" type="line"/>
      <point x="251" y="738" type="line"/>
      <point x="251" y="652" type="line"/>
      <point x="137" y="639"/>
      <point x="53" y="548"/>
      <point x="53" y="372" type="curve" smooth="yes"/>
      <point x="53" y="194"/>
      <point x="137" y="106"/>
      <point x="251" y="90" type="curve"/>
    </contour>
    <contour>
      <point x="251" y="161" type="line"/>
      <point x="175" y="175"/>
      <point x="139" y="242"/>
      <point x="139" y="372" type="curve" smooth="yes"/>
      <point x="139" y="501"/>
      <point x="175" y="568"/>
      <point x="251" y="583" type="curve"/>
    </contour>
    <contour>
      <point x="325" y="162" type="curve"/>
      <point x="325" y="582" type="line"/>
      <point x="399" y="565"/>
      <point x="435" y="499"/>
      <point x="435" y="371" type="curve" smooth="yes"/>
      <point x="435" y="244"/>
      <point x="399" y="178"/>
    </contour>
  </outline>
</glyph>
<glyph name="de-cy" format="2">
  <advance width="560"/>
  <unicode hex="0434"/>
  <outline>
    <contour>
      <point x="31" y="-142" type="line"/>
      <point x="107" y="-142" type="line"/>
      <point x="107" y="0" type="line"/>
      <point x="441" y="0" type="line"/>
      <point x="441" y="-142" type="line"/>
      <point x="517" y="-142" type="line"/>
      <point x="517" y="67" type="line"/>
      <point x="472" y="67" type="line"/>
      <point x="472" y="518" type="line"/>
      <point x="175" y="518" type="line"/>
      <point x="171" y="328"/>
      <point x="166" y="203"/>
      <point x="72" y="67" type="curve"/>
      <point x="31" y="67" type="line"/>
    </contour>
    <contour>
      <point x="158" y="67" type="line"/>
      <point x="234" y="161"/>
      <point x="259" y="324"/>
      <point x="257" y="451" type="curve"/>
      <point x="394" y="451" type="line"/>
      <point x="394" y="67" type="line"/>
    </contour>
  </outline>
</glyph>
<glyph name="ze-cy" format="2">
  <advance width="560"/>
  <unicode hex="0437"/>
  <anchor x="280" y="0" name="bottom"/>
  <anchor x="280" y="582" name="top"/>
  <outline>
    <contour>
      <point x="267" y="-11" type="curve" smooth="yes"/>
      <point x="417" y="-11"/>
      <point x="505" y="50"/>
      <point x="505" y="143" type="curve" smooth="yes"/>
      <point x="505" y="218"/>
      <point x="458" y="254"/>
      <point x="401" y="272" type="curve"/>
      <point x="433" y="279"/>
      <point x="486" y="327"/>
      <point x="486" y="382" type="curve" smooth="yes"/>
      <point x="486" y="494"/>
      <point x="382" y="532"/>
      <point x="268" y="532" type="curve" smooth="yes"/>
      <point x="216" y="532"/>
      <point x="153" y="522"/>
      <point x="103" y="505" type="curve"/>
      <point x="121" y="433" type="line"/>
      <point x="162" y="453"/>
      <point x="224" y="465"/>
      <point x="260" y="465" type="curve" smooth="yes"/>
      <point x="355" y="465"/>
      <point x="403" y="434"/>
      <point x="403" y="383" type="curve" smooth="yes"/>
      <point x="403" y="333"/>
      <point x="359" y="305"/>
      <point x="279" y="305" type="curve" smooth="yes"/>
      <point x="179" y="305" type="line"/>
      <point x="179" y="240" type="line"/>
      <point x="287" y="240" type="line" smooth="yes"/>
      <point x="372" y="240"/>
      <point x="422" y="199"/>
      <point x="422" y="144" type="curve" smooth="yes"/>
      <point x="422" y="91"/>
      <point x="376" y="57"/>
      <point x="267" y="57" type="curve" smooth="yes"/>
      <point x="186" y="57"/>
      <point x="125" y="76"/>
      <point x="105" y="83" type="curve"/>
      <point x="88" y="16" type="line"/>
      <point x="107" y="5"/>
      <point x="174" y="-11"/>
    </contour>
  </outline>
</glyph>
<glyph name="ii-cy" format="2">
  <advance width="560"/>
  <unicode hex="0438"/>
  <anchor x="538" y="0" name="bottomright"/>
  <anchor x="280" y="582" name="top"/>
  <outline>
    <contour>
      <point x="71" y="0" type="line"/>
      <point x="145" y="0" type="line"/>
      <point x="208" y="104"/>
      <point x="327" y="318"/>
      <point x="410" y="418" type="curve"/>
      <point x="410" y="0" type="line"/>
      <point x="491" y="0" type="line"/>
      <point x="491" y="518" type="line"/>
      <point x="416" y="518" type="line"/>
      <point x="333" y="433"/>
      <point x="226" y="244"/>
      <point x="150" y="122" type="curve"/>
      <point x="150" y="518" type="line"/>
      <point x="71" y="518" type="line"/>
    </contour>
  </outline>
</glyph>
<glyph name="Gemiddlehook-cy" format="2">
  <advance width="560"/>
  <unicode hex="0494"/>
  <outline>
    <contour>
      <point x="272" y="-184" type="curve" smooth="yes"/>
      <point x="427" y="-184"/>
      <point x="516" y="-37"/>
      <point x="516" y="126" type="curve" smooth="yes"/>
      <point x="516" y="304"/>
      <point x="439" y="434"/>
      <point x="260" y="434" type="curve" smooth="yes"/>
      <point x="214" y="434"/>
      <point x="146" y="419"/>
      <point x="128" y="411" type="curve"/>
      <point x="128" y="626" type="line"/>
      <point x="438" y="626" type="line"/>
      <point x="438" y="693" type="line"/>
      <point x="50" y="693" type="line"/>
      <point x="50" y="0" type="line"/>
      <point x="128" y="0" type="line"/>
      <point x="128" y="347" type="line"/>
      <point x="144" y="353"/>
      <point x="202" y="367"/>
      <point x="252" y="367" type="curve" smooth="yes"/>
      <point x="355" y="367"/>
      <point x="432" y="292"/>
      <point x="432" y="127" type="curve" smooth="yes"/>
      <point x="432" y="-32"/>
      <point x="352" y="-122"/>
      <point x="255" y="-122" type="curve" smooth="yes"/>
      <point x="234" y="-122"/>
      <point x="226" y="-120"/>
      <point x="220" y="-120" type="curve"/>
      <point x="219" y="-183" type="line"/>
      <point x="232" y="-185"/>
      <point x="253" y="-184"/>
    </contour>
  </outline>
</glyph>
<glyph name="Kadescender-cy" format="2">
  <advance width="560"/>
  <unicode hex="049A"/>
  <outline>
    <contour>
      <point x="454" y="-185" type="line"/>
      <point x="530" y="-185" type="line"/>
      <point x="530" y="67" type="line"/>
      <point x="486" y="67" type="line"/>
      <point x="421" y="193"/>
      <point x="334" y="302"/>
      <point x="252" y="369" type="curve"/>
      <point x="356" y="475"/>
      <point x="451" y="577"/>
      <point x="533" y="693" type="curve"/>
      <point x="442" y="693" type="line"/>
      <point x="364" y="595"/>
      <point x="264" y="482"/>
      <point x="157" y="378" type="curve"/>
      <point x="157" y="693" type="line"/>
      <point x="79" y="693" type="line"/>
      <point x="79" y="0" type="line"/>
      <point x="157" y="0" type="line"/>
      <point x="157" y="337" type="line"/>
      <point x="273" y="268"/>
      <point x="345" y="149"/>
      <point x="432" y="0" type="curve"/>
      <point x="454" y="0" type="line"/>
    </contour>
  </outline>
</glyph>
<glyph name="kadescender-cy" format="2">
  <advance width="560"/>
  <unicode hex="049B"/>
  <outline>
    <contour>
      <point x="447" y="-142" type="line"/>
      <point x="523" y="-142" type="line"/>
      <point x="523" y="67" type="line"/>
      <point x="483" y="67" type="line"/>
      <point x="415" y="150"/>
      <point x="317" y="240"/>
      <point x="255" y="283" type="curve"/>
      <point x="349" y="360"/>
      <point x="454" y="440"/>
      <point x="521" y="518" type="curve"/>
      <point x="430" y="518" type="line"/>
      <point x="355" y="438"/>
      <point x="255" y="372"/>
      <point x="161" y="297" type="curve"/>
      <point x="161" y="518" type="line"/>
      <point x="83" y="518" type="line"/>
      <point x="83" y="0" type="line"/>
      <point x="161" y="0" type="line"/>
      <point x="161" y="250" type="line"/>
      <point x="246" y="202"/>
      <point x="376" y="98"/>
      <point x="442" y="0" type="curve"/>
      <point x="447" y="0" type="line"/>
    </contour>
  </outline>
</glyph>
<glyph name="kaverticalstroke-cy" format="2">
  <advance width="560"/>
  <unicode hex="049D"/>
  <outline>
    <contour>
      <point x="69" y="0" type="line"/>
      <point x="147" y="0" type="line"/>
      <point x="147" y="237" type="line"/>
      <point x="203" y="237" type="line"/>
      <point x="203" y="130" type="line"/>
      <point x="268" y="130" type="line"/>
      <point x="268" y="232" type="line"/>
      <point x="325" y="179"/>
      <point x="375" y="83"/>
      <point x="432" y="0" type="curve"/>
      <point x="532" y="0" type="line"/>
      <point x="475" y="100"/>
      <point x="397" y="217"/>
      <point x="324" y="283" type="curve"/>
      <point x="408" y="387"/>
      <point x="442" y="432"/>
      <point x="506" y="518" type="curve"/>
      <point x="409" y="518" type="line"/>
      <point x="361" y="451"/>
      <point x="338" y="418"/>
      <point x="268" y="331" type="curve"/>
      <point x="268" y="413" type="line"/>
      <point x="203" y="413" type="line"/>
      <point x="203" y="300" type="line"/>
      <point x="147" y="300" type="line"/>
      <point x="147" y="518" type="line"/>
      <point x="69" y="518" type="line"/>
    </contour>
  </outline>
</glyph>
<glyph name="Tedescender-cy" format="2">
  <advance width="560"/>
  <unicode hex="04AC"/>
  <outline>
    <contour>
      <point x="278" y="-185" type="line"/>
      <point x="353" y="-185" type="line"/>
      <point x="353" y="67" type="line"/>
      <point x="319" y="67" type="line"/>
      <point x="319" y="626" type="line"/>
      <point x="511" y="626" type="line"/>
      <point x="511" y="693" type="line"/>
      <point x="49" y="693" type="line"/>
      <point x="49" y="626" type="line"/>
      <point x="241" y="626" type="line"/>
      <point x="241" y="0" type="line"/>
      <point x="278" y="0" type="line"/>
    </contour>
  </outline>
</glyph>
<glyph name="tedescender-cy" format="2">
  <advance width="560"/>
  <unicode hex="04AD"/>
  <outline>
    <contour>
      <point x="271" y="-142" type="line"/>
      <point x="347" y="-142" type="line"/>
      <point x="347" y="67" type="line"/>
      <point x="319" y="67" type="line"/>
      <point x="319" y="451" type="line"/>
      <point x="488" y="451" type="line"/>
      <point x="488" y="518" type="line"/>
      <point x="72" y="518" type="line"/>
      <point x="72" y="451" type="line"/>
      <point x="241" y="451" type="line"/>
      <point x="241" y="0" type="line"/>
      <point x="271" y="0" type="line"/>
    </contour>
  </outline>
</glyph>
<glyph name="ustraight-cy" format="2">
  <advance width="560"/>
  <unicode hex="04AF"/>
  <outline>
    <contour>
      <point x="241" y="-185" type="line"/>
      <point x="319" y="-185" type="line"/>
      <point x="319" y="9" type="line"/>
      <point x="387" y="149"/>
      <point x="467" y="327"/>
      <point x="521" y="518" type="curve"/>
      <point x="438" y="518" type="line"/>
      <point x="401" y="384"/>
      <point x="338" y="204"/>
      <point x="284" y="94" type="curve"/>
      <point x="230" y="204"/>
      <point x="163" y="383"/>
      <point x="126" y="518" type="curve"/>
      <point x="39" y="518" type="line"/>
      <point x="93" y="330"/>
      <point x="173" y="152"/>
      <point x="241" y="12" type="curve"/>
    </contour>
  </outline>
</glyph>
<glyph name="Hadescender-cy" format="2">
  <advance width="560"/>
  <unicode hex="04B2"/>
  <outline>
    <contour>
      <point x="454" y="-185" type="line"/>
      <point x="530" y="-185" type="line"/>
      <point x="530" y="67" type="line"/>
      <point x="487" y="67" type="line"/>
      <point x="439" y="174"/>
      <point x="390" y="275"/>
      <point x="331" y="370" type="curve"/>
      <point x="521" y="693" type="line"/>
      <point x="432" y="693" type="line"/>
      <point x="275" y="415" type="line"/>
      <point x="132" y="693" type="line"/>
      <point x="44" y="693" type="line"/>
      <point x="224" y="366" type="line"/>
      <point x="147" y="251"/>
      <point x="87" y="119"/>
      <point x="33" y="0" type="curve"/>
      <point x="118" y="0" type="line"/>
      <point x="167" y="110"/>
      <point x="220" y="233"/>
      <point x="279" y="313" type="curve"/>
      <point x="344" y="222"/>
      <point x="392" y="83"/>
      <point x="428" y="0" type="curve"/>
      <point x="454" y="0" type="line"/>
    </contour>
  </outline>
</glyph>
<glyph name="Chedescender-cy" format="2">
  <advance width="560"/>
  <unicode hex="04B6"/>
  <outline>
    <contour>
      <point x="454" y="-185" type="line"/>
      <point x="530" y="-185" type="line"/>
      <point x="530" y="67" type="line"/>
      <point x="485" y="67" type="line"/>
      <point x="485" y="693" type="line"/>
      <point x="407" y="693" type="line"/>
      <point x="407" y="334" type="line"/>
      <point x="388" y="329"/>
      <point x="335" y="317"/>
      <point x="280" y="317" type="curve" smooth="yes"/>
      <point x="159" y="317"/>
      <point x="143" y="380"/>
      <point x="143" y="494" type="curve" smooth="yes"/>
      <point x="143" y="693" type="line"/>
      <point x="63" y="693" type="line"/>
      <point x="63" y="496" type="line" smooth="yes"/>
      <point x="63" y="362"/>
      <point x="76" y="250"/>
      <point x="270" y="250" type="curve" smooth="yes"/>
      <point x="329" y="250"/>
      <point x="387" y="261"/>
      <point x="407" y="268" type="curve"/>
      <point x="407" y="0" type="line"/>
      <point x="454" y="0" type="line"/>
    </contour>
  </outline>
</glyph>
<glyph name="enhook-cy" format="2">
  <advance width="560"/>
  <unicode hex="04C8"/>
  <outline>
    <contour>
      <point x="343" y="-188" type="curve" smooth="yes"/>
      <point x="459" y="-188"/>
      <point x="476" y="-124"/>
      <point x="476" y="-6" type="curve" smooth="yes"/>
      <point x="476" y="518" type="line"/>
      <point x="398" y="518" type="line"/>
      <point x="398" y="304" type="line"/>
      <point x="162" y="304" type="line"/>
      <point x="162" y="518" type="line"/>
      <point x="84" y="518" type="line"/>
      <point x="84" y="0" type="line"/>
      <point x="162" y="0" type="line"/>
      <point x="162" y="237" type="line"/>
      <point x="398" y="237" type="line"/>
      <point x="398" y="-27" type="line" smooth="yes"/>
      <point x="398" y="-90"/>
      <point x="381" y="-125"/>
      <point x="333" y="-125" type="curve" smooth="yes"/>
      <point x="326" y="-125"/>
      <point x="303" y="-124"/>
      <point x="295" y="-121" type="curve"/>
      <point x="289" y="-181" type="line"/>
      <point x="299" y="-183"/>
      <point x="322" y="-188"/>
    </contour>
  </outline>
</glyph>
<glyph name="Emtail-cy" format="2">
  <advance width="560"/>
  <unicode hex="04CD"/>
  <outline>
    <contour>
      <point x="418" y="-189" type="line"/>
      <point x="484" y="-123"/>
      <point x="539" y="-13"/>
      <point x="535" y="68" type="curve"/>
      <point x="490" y="68" type="line"/>
      <point x="480" y="293"/>
      <point x="472" y="503"/>
      <point x="442" y="693" type="curve"/>
      <point x="364" y="693" type="line"/>
      <point x="331" y="563"/>
      <point x="297" y="454"/>
      <point x="268" y="337" type="curve"/>
      <point x="236" y="457"/>
      <point x="205" y="563"/>
      <point x="170" y="693" type="curve"/>
      <point x="93" y="693" type="line"/>
      <point x="63" y="474"/>
      <point x="48" y="229"/>
      <point x="39" y="0" type="curve"/>
      <point x="117" y="0" type="line"/>
      <point x="121" y="156"/>
      <point x="131" y="393"/>
      <point x="134" y="591" type="curve"/>
      <point x="230" y="268" type="line"/>
      <point x="305" y="268" type="line"/>
      <point x="397" y="591" type="line"/>
      <point x="404" y="391"/>
      <point x="408" y="156"/>
      <point x="414" y="0" type="curve"/>
      <point x="442" y="0" type="line"/>
      <point x="426" y="-63"/>
      <point x="381" y="-129"/>
      <point x="356" y="-150" type="curve"/>
    </contour>
  </outline>
</glyph>
<glyph name="Alphaprosgegrammeni" format="2">
  <advance width="560"/>
  <unicode hex="1FBC"/>
  <outline>
    <contour>
      <point x="10" y="0" type="curve"/>
      <point x="85" y="0" type="line"/>
      <point x="111" y="184" type="line"/>
      <point x="269" y="184" type="line"/>
      <point x="295" y="0" type="line"/>
      <point x="374" y="0" type="line"/>
      <point x="343" y="176"/>
      <point x="303" y="466"/>
      <point x="245" y="693" type="curve"/>
      <point x="141" y="693" type="line"/>
      <point x="82" y="466"/>
      <point x="40" y="174"/>
    </contour>
    <contour>
      <point x="121" y="256" type="line"/>
      <point x="156" y="480"/>
      <point x="176" y="563"/>
      <point x="190" y="620" type="curve"/>
      <point x="203" y="567"/>
      <point x="223" y="482"/>
      <point x="258" y="256" type="curve"/>
    </contour>
    <contour>
      <point x="546" y="-10" type="curve"/>
      <point x="557" y="64" type="line"/>
      <point x="509" y="78"/>
      <point x="497" y="92"/>
      <point x="497" y="150" type="curve" smooth="yes"/>
      <point x="497" y="518" type="line"/>
      <point x="422" y="518" type="line"/>
      <point x="422" y="127" type="line" smooth="yes"/>
      <point x="422" y="41"/>
      <point x="444" y="-1"/>
    </contour>
  </outline>
</glyph>
<glyph name="Etaprosgegrammeni" format="2">
  <advance width="560"/>
  <unicode hex="1FCC"/>
  <outline>
    <contour>
      <point x="59" y="0" type="line"/>
      <point x="133" y="0" type="line"/>
      <point x="133" y="325" type="line"/>
      <point x="276" y="325" type="line"/>
      <point x="276" y="0" type="line"/>
      <point x="351" y="0" type="line"/>
      <point x="351" y="693" type="line"/>
      <point x="276" y="693" type="line"/>
      <point x="276" y="398" type="line"/>
      <point x="133" y="398" type="line"/>
      <point x="133" y="693" type="line"/>
      <point x="59" y="693" type="line"/>
    </contour>
    <contour>
      <point x="549" y="-10" type="curve"/>
      <point x="560" y="64" type="line"/>
      <point x="512" y="78"/>
      <point x="500" y="92"/>
      <point x="500" y="150" type="curve" smooth="yes"/>
      <point x="500" y="518" type="line"/>
      <point x="425" y="518" type="line"/>
      <point x="425" y="127" type="line" smooth="yes"/>
      <point x="425" y="41"/>
      <point x="447" y="-1"/>
    </contour>
  </outline>
</glyph>
<glyph name="psiliperispomeni" format="2">
  <advance width="560"/>
  <unicode hex="1FCF"/>
  <anchor x="280" y="869" name="top"/>
  <outline>
    <contour>
      <point x="154" y="754" type="curve"/>
      <point x="200" y="754" type="line"/>
      <point x="203" y="778"/>
      <point x="222" y="815"/>
      <point x="280" y="815" type="curve" smooth="yes"/>
      <point x="338" y="815"/>
      <point x="357" y="778"/>
      <point x="360" y="754" type="curve"/>
      <point x="406" y="754" type="line"/>
      <point x="407" y="827"/>
      <point x="345" y="869"/>
      <point x="280" y="869" type="curve" smooth="yes"/>
      <point x="215" y="869"/>
      <point x="153" y="827"/>
    </contour>
    <contour>
      <point x="224" y="574" type="line"/>
      <point x="263" y="593"/>
      <point x="335" y="635"/>
      <point x="335" y="689" type="curve" smooth="yes"/>
      <point x="335" y="729"/>
      <point x="316" y="748"/>
      <point x="283" y="748" type="curve" smooth="yes"/>
      <point x="247" y="748"/>
      <point x="230" y="723"/>
      <point x="230" y="700" type="curve" smooth="yes"/>
      <point x="230" y="684"/>
      <point x="245" y="669"/>
      <point x="257" y="658" type="curve"/>
      <point x="247" y="642"/>
      <point x="229" y="626"/>
      <point x="199" y="605" type="curve"/>
    </contour>
  </outline>
</glyph>
<glyph name="dasiavaria" format="2">
  <advance width="560"/>
  <unicode hex="1FDD"/>
  <anchor x="280" y="769" name="top"/>
  <outline>
    <contour>
      <point x="386" y="571" type="line"/>
      <point x="433" y="606" type="line"/>
      <point x="328" y="769" type="line"/>
      <point x="264" y="724" type="line"/>
    </contour>
    <contour>
      <point x="224" y="573" type="curve"/>
      <point x="258" y="604" type="line"/>
      <point x="232" y="626"/>
      <point x="214" y="644"/>
      <point x="200" y="668" type="curve"/>
      <point x="223" y="677"/>
      <point x="234" y="694"/>
      <point x="234" y="716" type="curve" smooth="yes"/>
      <point x="234" y="744"/>
      <point x="212" y="766"/>
      <point x="182" y="766" type="curve" smooth="yes"/>
      <point x="153" y="766"/>
      <point x="127" y="746"/>
      <point x="127" y="708" type="curve" smooth="yes"/>
      <point x="127" y="666"/>
      <point x="175" y="612"/>
    </contour>
  </outline>
</glyph>
<glyph name="dasiaperispomeni" format="2">
  <advance width="560"/>
  <unicode hex="1FDF"/>
  <anchor x="280" y="869" name="top"/>
  <outline>
    <contour>
      <point x="154" y="754" type="curve"/>
      <point x="200" y="754" type="line"/>
      <point x="203" y="778"/>
      <point x="222" y="815"/>
      <point x="280" y="815" type="curve" smooth="yes"/>
      <point x="338" y="815"/>
      <point x="357" y="778"/>
      <point x="360" y="754" type="curve"/>
      <point x="406" y="754" type="line"/>
      <point x="407" y="827"/>
      <point x="345" y="869"/>
      <point x="280" y="869" type="curve" smooth="yes"/>
      <point x="215" y="869"/>
      <point x="153" y="827"/>
    </contour>
    <contour>
      <point x="336" y="574" type="curve"/>
      <point x="361" y="605" type="line"/>
      <point x="330" y="626"/>
      <point x="313" y="642"/>
      <point x="303" y="658" type="curve"/>
      <point x="315" y="669"/>
      <point x="330" y="684"/>
      <point x="330" y="700" type="curve" smooth="yes"/>
      <point x="330" y="723"/>
      <point x="313" y="748"/>
      <point x="277" y="748" type="curve" smooth="yes"/>
      <point x="247" y="748"/>
      <point x="225" y="729"/>
      <point x="225" y="689" type="curve" smooth="yes"/>
      <point x="225" y="635"/>
      <point x="296" y="593"/>
    </contour>
  </outline>
</glyph>
<glyph name="dialytikaoxia" format="2">
  <advance width="560"/>
  <unicode hex="1FEE"/>
  <outline>
    <contour>
      <point x="249" y="580" type="line"/>
      <point x="352" y="726" type="line"/>
      <point x="292" y="770" type="line"/>
      <point x="203" y="610" type="line"/>
    </contour>
    <contour>
      <point x="142" y="627" type="curve" smooth="yes"/>
      <point x="170" y="627"/>
      <point x="189" y="646"/>
      <point x="189" y="675" type="curve" smooth="yes"/>
      <point x="189" y="704"/>
      <point x="170" y="725"/>
      <point x="142" y="725" type="curve" smooth="yes"/>
      <point x="118" y="725"/>
      <point x="94" y="704"/>
      <point x="94" y="675" type="curve" smooth="yes"/>
      <point x="94" y="646"/>
      <point x="118" y="627"/>
    </contour>
    <contour>
      <point x="418" y="627" type="curve" smooth="yes"/>
      <point x="447" y="627"/>
      <point x="466" y="646"/>
      <point x="466" y="675" type="curve" smooth="yes"/>
      <point x="466" y="704"/>
      <point x="447" y="725"/>
      <point x="418" y="725" type="curve" smooth="yes"/>
      <point x="390" y="725"/>
      <point x="370" y="704"/>
      <point x="370" y="675" type="curve" smooth="yes"/>
      <point x="370" y="646"/>
      <point x="390" y="627"/>
    </contour>
  </outline>
</glyph>
<glyph name="quoteleft" format="2">
  <advance width="560"/>
  <unicode hex="2018"/>
  <outline>
    <contour>
      <point x="248" y="487" type="curve" smooth="yes"/>
      <point x="284" y="487"/>
      <point x="326" y="517"/>
      <point x="326" y="576" type="curve" smooth="yes"/>
      <point x="326" y="602"/>
      <point x="310" y="640"/>
      <point x="263" y="644" type="curve"/>
      <point x="284" y="702"/>
      <point x="334" y="713"/>
      <point x="388" y="724" type="curve"/>
      <point x="372" y="792" type="line"/>
      <point x="238" y="776"/>
      <point x="169" y="666"/>
      <point x="169" y="585" type="curve" smooth="yes"/>
      <point x="169" y="533"/>
      <point x="195" y="487"/>
    </contour>
  </outline>
</glyph>
<glyph name="daggerdbl" format="2">
  <advance width="560"/>
  <unicode hex="2021"/>
  <outline>
    <contour>
      <point x="265" y="-144" type="curve"/>
      <point x="300" y="-144" type="line"/>
      <point x="311" y="-55"/>
      <point x="315" y="28"/>
      <point x="315" y="141" type="curve"/>
      <point x="476" y="141" type="line"/>
      <point x="476" y="207" type="line"/>
      <point x="315" y="207" type="line"/>
      <point x="315" y="406" type="line"/>
      <point x="476" y="406" type="line"/>
      <point x="476" y="472" type="line"/>
      <point x="315" y="472" type="line"/>
      <point x="315" y="693" type="line"/>
      <point x="248" y="693" type="line"/>
      <point x="248" y="472" type="line"/>
      <point x="86" y="472" type="line"/>
      <point x="86" y="406" type="line"/>
      <point x="248" y="406" type="line"/>
      <point x="248" y="207" type="line"/>
      <point x="86" y="207" type="line"/>
      <point x="86" y="141" type="line"/>
      <point x="248" y="141" type="line"/>
      <point x="247" y="28"/>
      <point x="252" y="-55"/>
    </contour>
  </outline>
</glyph>
<glyph name="tugrik" format="2">
  <advance width="560"/>
  <unicode hex="20AE"/>
  <outline>
    <contour>
      <point x="241" y="0" type="line"/>
      <point x="318" y="0" type="line"/>
      <point x="318" y="197" type="line"/>
      <point x="469" y="267" type="line"/>
      <point x="442" y="322" type="line"/>
      <point x="318" y="263" type="line"/>
      <point x="318" y="389" type="line"/>
      <point x="470" y="460" type="line"/>
      <point x="442" y="516" type="line"/>
      <point x="318" y="457" type="line"/>
      <point x="318" y="623" type="line"/>
      <point x="519" y="623" type="line"/>
      <point x="519" y="693" type="line"/>
      <point x="40" y="693" type="line"/>
      <point x="40" y="623" type="line"/>
      <point x="241" y="623" type="line"/>
      <point x="241" y="427" type="line"/>
      <point x="89" y="356" type="line"/>
      <point x="115" y="301" type="line"/>
      <point x="241" y="359" type="line"/>
      <point x="241" y="233" type="line"/>
      <point x="89" y="162" type="line"/>
      <point x="115" y="107" type="line"/>
      <point x="241" y="166" type="line"/>
    </contour>
  </outline>
</glyph>
<glyph name="published" format="2">
  <advance width="560"/>
  <unicode hex="2117"/>
  <outline>
    <contour>
      <point x="278" y="-11" type="curve" smooth="yes"/>
      <point x="395" y="-11"/>
      <point x="518" y="81"/>
      <point x="518" y="262" type="curve" smooth="yes"/>
      <point x="518" y="441"/>
      <point x="399" y="532"/>
      <point x="281" y="532" type="curve" smooth="yes"/>
      <point x="164" y="532"/>
      <point x="41" y="441"/>
      <point x="41" y="259" type="curve" smooth="yes"/>
      <point x="41" y="81"/>
      <point x="160" y="-11"/>
    </contour>
    <contour>
      <point x="280" y="45" type="curve" smooth="yes"/>
      <point x="192" y="45"/>
      <point x="103" y="116"/>
      <point x="103" y="261" type="curve" smooth="yes"/>
      <point x="103" y="403"/>
      <point x="192" y="475"/>
      <point x="280" y="475" type="curve" smooth="yes"/>
      <point x="367" y="475"/>
      <point x="457" y="405"/>
      <point x="457" y="259" type="curve" smooth="yes"/>
      <point x="457" y="118"/>
      <point x="371" y="45"/>
    </contour>
    <contour>
      <point x="198" y="124" type="line"/>
      <point x="258" y="124" type="line"/>
      <point x="258" y="211" type="line"/>
      <point x="285" y="211" type="line" smooth="yes"/>
      <point x="345" y="211"/>
      <point x="383" y="251"/>
      <point x="383" y="308" type="curve" smooth="yes"/>
      <point x="383" y="376"/>
      <point x="330" y="400"/>
      <point x="278" y="400" type="curve" smooth="yes"/>
      <point x="249" y="400"/>
      <point x="221" y="395"/>
      <point x="198" y="389" type="curve"/>
    </contour>
    <contour>
      <point x="258" y="259" type="line"/>
      <point x="258" y="350" type="line"/>
      <point x="264" y="351"/>
      <point x="269" y="352"/>
      <point x="280" y="352" type="curve" smooth="yes"/>
      <point x="305" y="352"/>
      <point x="321" y="336"/>
      <point x="321" y="308" type="curve" smooth="yes"/>
      <point x="321" y="272"/>
      <point x="306" y="259"/>
      <point x="278" y="259" type="curve" smooth="yes"/>
    </contour>
  </outline>
</glyph>
<glyph name="twothirds" format="2">
  <advance width="560"/>
  <unicode hex="2154"/>
  <outline>
    <contour>
      <point x="33" y="0" type="line"/>
      <point x="101" y="0" type="line"/>
      <point x="547" y="693" type="line"/>
      <point x="479" y="693" type="line"/>
    </contour>
    <contour>
      <point x="415" y="-8" type="curve" smooth="yes"/>
      <point x="505" y="-8"/>
      <point x="531" y="47"/>
      <point x="531" y="82" type="curve" smooth="yes"/>
      <point x="531" y="117"/>
      <point x="514" y="142"/>
      <point x="484" y="156" type="curve"/>
      <point x="506" y="174"/>
      <point x="517" y="198"/>
      <point x="517" y="218" type="curve" smooth="yes"/>
      <point x="517" y="276"/>
      <point x="464" y="290"/>
      <point x="421" y="290" type="curve" smooth="yes"/>
      <point x="385" y="290"/>
      <point x="346" y="280"/>
      <point x="324" y="266" type="curve"/>
      <point x="344" y="222" type="line"/>
      <point x="363" y="230"/>
      <point x="392" y="238"/>
      <point x="412" y="238" type="curve" smooth="yes"/>
      <point x="435" y="238"/>
      <point x="460" y="232"/>
      <point x="460" y="209" type="curve" smooth="yes"/>
      <point x="460" y="178"/>
      <point x="435" y="174"/>
      <point x="397" y="174" type="curve" smooth="yes"/>
      <point x="372" y="174" type="line"/>
      <point x="372" y="121" type="line"/>
      <point x="382" y="121" type="line" smooth="yes"/>
      <point x="442" y="121"/>
      <point x="474" y="115"/>
      <point x="474" y="80" type="curve" smooth="yes"/>
      <point x="474" y="54"/>
      <point x="443" y="44"/>
      <point x="409" y="44" type="curve" smooth="yes"/>
      <point x="379" y="44"/>
      <point x="355" y="51"/>
      <point x="339" y="57" type="curve"/>
      <point x="323" y="7" type="line"/>
      <point x="351" y="-2"/>
      <point x="383" y="-8"/>
    </contour>
    <contour>
      <point x="31" y="422" type="curve"/>
      <point x="248" y="422" type="line"/>
      <point x="248" y="473" type="line"/>
      <point x="101" y="473" type="line"/>
      <point x="139" y="511"/>
      <point x="237" y="539"/>
      <point x="237" y="616" type="curve" smooth="yes"/>
      <point x="237" y="659"/>
      <point x="206" y="708"/>
      <point x="132" y="708" type="curve" smooth="yes"/>
      <point x="96" y="708"/>
      <point x="57" y="694"/>
      <point x="31" y="667" type="curve"/>
      <point x="64" y="629" type="line"/>
      <point x="82" y="648"/>
      <point x="109" y="656"/>
      <point x="132" y="656" type="curve" smooth="yes"/>
      <point x="156" y="656"/>
      <point x="179" y="643"/>
      <point x="179" y="615" type="curve" smooth="yes"/>
      <point x="179" y="594"/>
      <point x="166" y="578"/>
      <point x="128" y="555" type="curve" smooth="yes"/>
      <point x="104" y="538" type="line" smooth="yes"/>
      <point x="67" y="515"/>
      <point x="30" y="495"/>
      <point x="30" y="448" type="curve" smooth="yes"/>
      <point x="30" y="444"/>
      <point x="30" y="425"/>
    </contour>
  </outline>
</glyph>
<glyph name="fivesixths" format="2">
  <advance width="560"/>
  <unicode hex="215A"/>
  <outline>
    <contour>
      <point x="24" y="0" type="line"/>
      <point x="94" y="0" type="line"/>
      <point x="538" y="693" type="line"/>
      <point x="470" y="693" type="line"/>
    </contour>
    <contour>
      <point x="373" y="42" type="curve" smooth="yes"/>
      <point x="338" y="42"/>
      <point x="319" y="67"/>
      <point x="319" y="120" type="curve"/>
      <point x="335" y="132"/>
      <point x="355" y="137"/>
      <point x="372" y="137" type="curve" smooth="yes"/>
      <point x="406" y="137"/>
      <point x="423" y="115"/>
      <point x="423" y="90" type="curve" smooth="yes"/>
      <point x="423" y="67"/>
      <point x="406" y="42"/>
    </contour>
    <contour>
      <point x="377" y="-10" type="curve" smooth="yes"/>
      <point x="445" y="-10"/>
      <point x="479" y="42"/>
      <point x="479" y="91" type="curve" smooth="yes"/>
      <point x="479" y="140"/>
      <point x="445" y="190"/>
      <point x="378" y="190" type="curve" smooth="yes"/>
      <point x="361" y="190"/>
      <point x="344" y="184"/>
      <point x="327" y="174" type="curve"/>
      <point x="345" y="218"/>
      <point x="389" y="238"/>
      <point x="459" y="240" type="curve"/>
      <point x="453" y="290" type="line"/>
      <point x="318" y="289"/>
      <point x="263" y="196"/>
      <point x="263" y="112" type="curve" smooth="yes"/>
      <point x="263" y="45"/>
      <point x="293" y="-10"/>
    </contour>
    <contour>
      <point x="129" y="411" type="curve" smooth="yes"/>
      <point x="221" y="411"/>
      <point x="259" y="453"/>
      <point x="259" y="510" type="curve" smooth="yes"/>
      <point x="259" y="570"/>
      <point x="215" y="601"/>
      <point x="135" y="603" type="curve"/>
      <point x="140" y="649" type="line"/>
      <point x="247" y="649" type="line"/>
      <point x="247" y="701" type="line"/>
      <point x="89" y="701" type="line"/>
      <point x="85" y="638"/>
      <point x="83" y="625"/>
      <point x="75" y="556" type="curve"/>
      <point x="169" y="555"/>
      <point x="202" y="544"/>
      <point x="202" y="505" type="curve" smooth="yes"/>
      <point x="202" y="473"/>
      <point x="167" y="463"/>
      <point x="127" y="463" type="curve" smooth="yes"/>
      <point x="95" y="463"/>
      <point x="69" y="476"/>
      <point x="57" y="482" type="curve"/>
      <point x="42" y="434" type="line"/>
      <point x="58" y="422"/>
      <point x="96" y="411"/>
    </contour>
  </outline>
</glyph>
<glyph name="threeeighths" format="2">
  <advance width="560"/>
  <unicode hex="215C"/>
  <outline>
    <contour>
      <point x="2" y="0" type="line"/>
      <point x="70" y="0" type="line"/>
      <point x="516" y="693" type="line"/>
      <point x="447" y="693" type="line"/>
    </contour>
    <contour>
      <point x="400" y="45" type="curve" smooth="yes"/>
      <point x="375" y="45"/>
      <point x="342" y="55"/>
      <point x="342" y="76" type="curve" smooth="yes"/>
      <point x="342" y="98"/>
      <point x="356" y="114"/>
      <point x="379" y="125" type="curve"/>
      <point x="418" y="113"/>
      <point x="457" y="106"/>
      <point x="457" y="76" type="curve" smooth="yes"/>
      <point x="457" y="56"/>
      <point x="430" y="45"/>
    </contour>
    <contour>
      <point x="400" y="-8" type="curve" smooth="yes"/>
      <point x="450" y="-8"/>
      <point x="518" y="17"/>
      <point x="518" y="77" type="curve" smooth="yes"/>
      <point x="519" y="116"/>
      <point x="493" y="137"/>
      <point x="465" y="149" type="curve"/>
      <point x="502" y="167"/>
      <point x="509" y="189"/>
      <point x="509" y="210" type="curve" smooth="yes"/>
      <point x="509" y="261"/>
      <point x="455" y="290"/>
      <point x="401" y="290" type="curve" smooth="yes"/>
      <point x="347" y="290"/>
      <point x="292" y="265"/>
      <point x="292" y="212" type="curve" smooth="yes"/>
      <point x="292" y="176"/>
      <point x="309" y="156"/>
      <point x="331" y="144" type="curve"/>
      <point x="292" y="127"/>
      <point x="282" y="94"/>
      <point x="282" y="77" type="curve" smooth="yes"/>
      <point x="282" y="15"/>
      <point x="342" y="-8"/>
    </contour>
    <contour>
      <point x="413" y="167" type="curve"/>
      <point x="382" y="175"/>
      <point x="352" y="184"/>
      <point x="352" y="208" type="curve" smooth="yes"/>
      <point x="352" y="224"/>
      <point x="374" y="237"/>
      <point x="396" y="237" type="curve" smooth="yes"/>
      <point x="432" y="237"/>
      <point x="448" y="225"/>
      <point x="448" y="209" type="curve" smooth="yes"/>
      <point x="448" y="196"/>
      <point x="437" y="180"/>
    </contour>
    <contour>
      <point x="117" y="411" type="curve" smooth="yes"/>
      <point x="209" y="411"/>
      <point x="236" y="466"/>
      <point x="236" y="501" type="curve" smooth="yes"/>
      <point x="236" y="535"/>
      <point x="217" y="561"/>
      <point x="186" y="576" type="curve"/>
      <point x="210" y="593"/>
      <point x="220" y="616"/>
      <point x="220" y="637" type="curve" smooth="yes"/>
      <point x="220" y="695"/>
      <point x="167" y="709"/>
      <point x="124" y="709" type="curve" smooth="yes"/>
      <point x="88" y="709"/>
      <point x="50" y="698"/>
      <point x="28" y="685" type="curve"/>
      <point x="47" y="641" type="line"/>
      <point x="66" y="649"/>
      <point x="95" y="657"/>
      <point x="115" y="657" type="curve" smooth="yes"/>
      <point x="139" y="657"/>
      <point x="163" y="652"/>
      <point x="163" y="628" type="curve" smooth="yes"/>
      <point x="163" y="597"/>
      <point x="138" y="593"/>
      <point x="102" y="593" type="curve" smooth="yes"/>
      <point x="75" y="593" type="line"/>
      <point x="75" y="539" type="line"/>
      <point x="86" y="539" type="line" smooth="yes"/>
      <point x="145" y="539"/>
      <point x="177" y="534"/>
      <point x="177" y="500" type="curve" smooth="yes"/>
      <point x="177" y="473"/>
      <point x="145" y="463"/>
      <point x="112" y="463" type="curve" smooth="yes"/>
      <point x="82" y="463"/>
      <point x="58" y="470"/>
      <point x="42" y="477" type="curve"/>
      <point x="26" y="426" type="line"/>
      <point x="54" y="416"/>
      <point x="86" y="411"/>
    </contour>
  </outline>
</glyph>
<glyph name="increment" format="2">
  <advance width="560"/>
  <unicode hex="2206"/>
  <outline>
    <contour>
      <point x="10" y="0" type="curve"/>
      <point x="550" y="0" type="line"/>
      <point x="505" y="176"/>
      <point x="418" y="488"/>
      <point x="334" y="693" type="curve"/>
      <point x="230" y="693" type="line"/>
      <point x="134" y="450"/>
      <point x="81" y="265"/>
    </contour>
    <contour>
      <point x="107" y="67" type="line"/>
      <point x="166" y="328"/>
      <point x="252" y="564"/>
      <point x="279" y="629" type="curve"/>
      <point x="308" y="563"/>
      <point x="389" y="328"/>
      <point x="449" y="67" type="curve"/>
    </contour>
  </outline>
</glyph>
<glyph name="summation" format="2">
  <advance width="560"/>
  <unicode hex="2211"/>
  <outline>
    <contour>
      <point x="61" y="-109" type="line"/>
      <point x="495" y="-109" type="line"/>
      <point x="495" y="-41" type="line"/>
      <point x="153" y="-41" type="line"/>
      <point x="202" y="58"/>
      <point x="279" y="168"/>
      <point x="369" y="305" type="curve"/>
      <point x="299" y="410"/>
      <point x="198" y="561"/>
      <point x="160" y="626" type="curve"/>
      <point x="495" y="626" type="line"/>
      <point x="495" y="693" type="line"/>
      <point x="65" y="693" type="line"/>
      <point x="65" y="635" type="line"/>
      <point x="76" y="613"/>
      <point x="117" y="559"/>
      <point x="281" y="306" type="curve"/>
      <point x="176" y="145"/>
      <point x="100" y="40"/>
      <point x="61" y="-47" type="curve"/>
    </contour>
  </outline>
</glyph>
<glyph name="crossMark" format="2">
  <advance width="560"/>
  <unicode hex="274C"/>
  <outline>
    <contour>
      <point x="81" y="0" type="line"/>
      <point x="280" y="228" type="line"/>
      <point x="479" y="0" type="line"/>
      <point x="526" y="48" type="line"/>
      <point x="325" y="280" type="line"/>
      <point x="535" y="520" type="line"/>
      <point x="486" y="569" type="line"/>
      <point x="280" y="332" type="line"/>
      <point x="74" y="569" type="line"/>
      <point x="25" y="520" type="line"/>
      <point x="235" y="280" type="line"/>
      <point x="34" y="48" type="line"/>
    </contour>
  </outline>
</glyph>
<glyph name="fi" format="2">
  <advance width="560"/>
  <unicode hex="FB01"/>
  <anchor x="280" y="0" name="caret_1"/>
  <outline>
    <contour>
      <point x="94" y="0" type="line"/>
      <point x="177" y="0" type="line"/>
      <point x="177" y="451" type="line"/>
      <point x="326" y="451" type="line"/>
      <point x="326" y="518" type="line"/>
      <point x="177" y="518" type="line"/>
      <point x="177" y="570" type="line" smooth="yes"/>
      <point x="177" y="656"/>
      <point x="211" y="711"/>
      <point x="299" y="711" type="curve" smooth="yes"/>
      <point x="333" y="711"/>
      <point x="349" y="707"/>
      <point x="364" y="702" type="curve"/>
      <point x="375" y="769" type="line"/>
      <point x="359" y="774"/>
      <point x="327" y="776"/>
      <point x="293" y="776" type="curve" smooth="yes"/>
      <point x="163" y="776"/>
      <point x="94" y="703"/>
      <point x="94" y="571" type="curve" smooth="yes"/>
      <point x="94" y="518" type="line"/>
      <point x="34" y="518" type="line"/>
      <point x="34" y="451" type="line"/>
      <point x="94" y="451" type="line"/>
    </contour>
    <contour>
      <point x="416" y="0" type="line"/>
      <point x="498" y="0" type="line"/>
      <point x="498" y="518" type="line"/>
      <point x="416" y="518" type="line"/>
    </contour>
    <contour>
      <point x="455" y="621" type="curve" smooth="yes"/>
      <point x="484" y="621"/>
      <point x="508" y="643"/>
      <point x="508" y="674" type="curve" smooth="yes"/>
      <point x="508" y="705"/>
      <point x="484" y="727"/>
      <point x="455" y="727" type="curve" smooth="yes"/>
      <point x="427" y="727"/>
      <point x="402" y="705"/>
      <point x="402" y="674" type="curve" smooth="yes"/>
      <point x="402" y="643"/>
      <point x="427" y="621"/>
    </contour>
  </outline>
</glyph>
<glyph name="brevecomb.cyr" format="2">
  <anchor x="280" y="518" name="_top"/>
  <anchor x="280" y="737" name="top"/>
  <outline>
    <contour>
      <point x="280" y="606" type="curve" smooth="yes"/>
      <point x="362" y="606"/>
      <point x="410" y="650"/>
      <point x="422" y="721" type="curve"/>
      <point x="363" y="737" type="line"/>
      <point x="350" y="697"/>
      <point x="327" y="664"/>
      <point x="280" y="664" type="curve" smooth="yes"/>
      <point x="232" y="664"/>
      <point x="210" y="696"/>
      <point x="197" y="737" type="curve"/>
      <point x="137" y="720" type="line"/>
      <point x="149" y="650"/>
      <point x="197" y="606"/>
    </contour>
  </outline>
</glyph>
<glyph name="dieresiscomb_caroncomb" format="2">
  <anchor x="280" y="518" name="_top"/>
  <anchor x="280" y="832" name="top"/>
  <outline>
    <contour>
      <point x="279" y="696" type="line"/>
      <point x="395" y="781" type="line"/>
      <point x="372" y="822" type="line"/>
      <point x="279" y="766" type="line"/>
      <point x="186" y="822" type="line"/>
      <point x="163" y="781" type="line"/>
    </contour>
    <contour>
      <point x="182" y="586" type="curve" smooth="yes"/>
      <point x="212" y="586"/>
      <point x="233" y="608"/>
      <point x="233" y="639" type="curve" smooth="yes"/>
      <point x="233" y="670"/>
      <point x="212" y="691"/>
      <point x="182" y="691" type="curve" smooth="yes"/>
      <point x="154" y="691"/>
      <point x="131" y="670"/>
      <point x="131" y="639" type="curve" smooth="yes"/>
      <point x="131" y="608"/>
      <point x="154" y="586"/>
    </contour>
    <contour>
      <point x="378" y="586" type="curve" smooth="yes"/>
      <point x="408" y="586"/>
      <point x="429" y="608"/>
      <point x="429" y="639" type="curve" smooth="yes"/>
      <point x="429" y="670"/>
      <point x="408" y="691"/>
      <point x="378" y="691" type="curve" smooth="yes"/>
      <point x="348" y="691"/>
      <point x="327" y="670"/>
      <point x="327" y="639" type="curve" smooth="yes"/>
      <point x="327" y="608"/>
      <point x="348" y="586"/>
    </contour>
  </outline>
</glyph>
<glyph name="euro.osf" format="2">
  <advance width="560"/>
  <outline>
    <contour>
      <point x="372" y="-11" type="curve" smooth="yes"/>
      <point x="433" y="-11"/>
      <point x="480" y="6"/>
      <point x="500" y="15" type="curve"/>
      <point x="484" y="76" type="line"/>
      <point x="459" y="64"/>
      <point x="424" y="53"/>
      <point x="375" y="53" type="curve" smooth="yes"/>
      <point x="276" y="53"/>
      <point x="243" y="114"/>
      <point x="228" y="192" type="curve"/>
      <point x="386" y="192" type="line"/>
      <point x="398" y="248" type="line"/>
      <point x="222" y="248" type="line"/>
      <point x="221" y="265"/>
      <point x="221" y="277"/>
      <point x="221" y="291" type="curve" smooth="yes"/>
      <point x="221" y="305"/>
      <point x="222" y="319"/>
      <point x="223" y="338" type="curve"/>
      <point x="416" y="338" type="line"/>
      <point x="426" y="394" type="line"/>
      <point x="230" y="394" type="line"/>
      <point x="245" y="469"/>
      <point x="282" y="527"/>
      <point x="374" y="527" type="curve" smooth="yes"/>
      <point x="409" y="527"/>
      <point x="442" y="520"/>
      <point x="469" y="510" type="curve"/>
      <point x="486" y="574" type="line"/>
      <point x="452" y="584"/>
      <point x="428" y="591"/>
      <point x="374" y="591" type="curve" smooth="yes"/>
      <point x="238" y="591"/>
      <point x="171" y="507"/>
      <point x="149" y="394" type="curve"/>
      <point x="69" y="394" type="line"/>
      <point x="69" y="338" type="line"/>
      <point x="143" y="338" type="line"/>
      <point x="141" y="322"/>
      <point x="140" y="303"/>
      <point x="140" y="291" type="curve" smooth="yes"/>
      <point x="140" y="277"/>
      <point x="140" y="264"/>
      <point x="141" y="248" type="curve"/>
      <point x="69" y="248" type="line"/>
      <point x="69" y="192" type="line"/>
      <point x="147" y="192" type="line"/>
      <point x="166" y="73"/>
      <point x="229" y="-11"/>
    </contour>
  </outline>
</glyph>
<glyph name="four.numr" format="2">
  <advance width="560"/>
  <outline>
    <contour>
      <point x="320" y="319" type="line"/>
      <point x="380" y="319" type="line"/>
      <point x="380" y="415" type="line"/>
      <point x="431" y="415" type="line"/>
      <point x="431" y="467" type="line"/>
      <point x="380" y="467" type="line"/>
      <point x="380" y="701" type="line"/>
      <point x="326" y="701" type="line"/>
      <point x="247" y="638"/>
      <point x="155" y="511"/>
      <point x="123" y="454" type="curve"/>
      <point x="123" y="415" type="line"/>
      <point x="320" y="415" type="line"/>
    </contour>
    <contour>
      <point x="189" y="467" type="line"/>
      <point x="223" y="520"/>
      <point x="276" y="581"/>
      <point x="320" y="626" type="curve"/>
      <point x="320" y="467" type="line"/>
    </contour>
  </outline>
</glyph>
<glyph name="idotless_ogonekcomb" format="2">
  <advance width="560"/>
  <anchor x="280" y="0" name="bottom"/>
  <anchor x="498" y="16" name="ogonek"/>
  <anchor x="258" y="518" name="top"/>
  <outline>
    <contour>
      <point x="429" y="-186" type="curve" smooth="yes"/>
      <point x="455" y="-186"/>
      <point x="476" y="-182"/>
      <point x="487" y="-176" type="curve"/>
      <point x="480" y="-116" type="line"/>
      <point x="469" y="-121"/>
      <point x="450" y="-123"/>
      <point x="442" y="-123" type="curve" smooth="yes"/>
      <point x="414" y="-123"/>
      <point x="399" y="-114"/>
      <point x="399" y="-94" type="curve" smooth="yes"/>
      <point x="399" y="-69"/>
      <point x="435" y="-25"/>
      <point x="498" y="16" type="curve"/>
      <point x="487" y="84" type="line"/>
      <point x="472" y="76"/>
      <point x="433" y="60"/>
      <point x="385" y="60" type="curve" smooth="yes"/>
      <point x="328" y="60"/>
      <point x="295" y="85"/>
      <point x="295" y="200" type="curve" smooth="yes"/>
      <point x="295" y="518" type="line"/>
      <point x="66" y="518" type="line"/>
      <point x="66" y="451" type="line"/>
      <point x="219" y="451" type="line"/>
      <point x="219" y="195" type="line"/>
      <point x="219" y="55"/>
      <point x="255" y="-13"/>
      <point x="385" y="-12" type="curve"/>
      <point x="371" y="-18"/>
      <point x="320" y="-64"/>
      <point x="320" y="-109" type="curve" smooth="yes"/>
      <point x="320" y="-154"/>
      <point x="349" y="-186"/>
    </contour>
  </outline>
</glyph>
<glyph name="nine.numr" format="2">
  <advance width="560"/>
  <outline>
    <contour>
      <point x="171" y="318" type="line"/>
      <point x="339" y="318"/>
      <point x="437" y="398"/>
      <point x="437" y="547" type="curve" smooth="yes"/>
      <point x="437" y="649"/>
      <point x="385" y="709"/>
      <point x="287" y="709" type="curve" smooth="yes"/>
      <point x="192" y="709"/>
      <point x="149" y="637"/>
      <point x="149" y="582" type="curve" smooth="yes"/>
      <point x="149" y="519"/>
      <point x="187" y="459"/>
      <point x="290" y="459" type="curve" smooth="yes"/>
      <point x="310" y="459"/>
      <point x="336" y="461"/>
      <point x="367" y="475" type="curve"/>
      <point x="349" y="406"/>
      <point x="264" y="372"/>
      <point x="169" y="369" type="curve"/>
    </contour>
    <contour>
      <point x="292" y="513" type="curve" smooth="yes"/>
      <point x="241" y="513"/>
      <point x="213" y="536"/>
      <point x="213" y="582" type="curve" smooth="yes"/>
      <point x="213" y="612"/>
      <point x="232" y="658"/>
      <point x="287" y="658" type="curve" smooth="yes"/>
      <point x="358" y="658"/>
      <point x="380" y="602"/>
      <point x="378" y="526" type="curve"/>
      <point x="349" y="515"/>
      <point x="322" y="513"/>
    </contour>
  </outline>
</glyph>
<glyph name="one.numr" format="2">
  <advance width="560"/>
  <outline>
    <contour>
      <point x="147" y="319" type="line"/>
      <point x="416" y="319" type="line"/>
      <point x="416" y="375" type="line"/>
      <point x="313" y="375" type="line"/>
      <point x="313" y="701" type="line"/>
      <point x="276" y="701" type="line"/>
      <point x="241" y="665"/>
      <point x="190" y="637"/>
      <point x="140" y="623" type="curve"/>
      <point x="156" y="578" type="line"/>
      <point x="179" y="583"/>
      <point x="227" y="600"/>
      <point x="257" y="620" type="curve"/>
      <point x="257" y="375" type="line"/>
      <point x="147" y="375" type="line"/>
    </contour>
  </outline>
</glyph>
<glyph name="tugrik.osf" format="2">
  <advance width="560"/>
  <outline>
    <contour>
      <point x="242" y="0" type="line"/>
      <point x="321" y="0" type="line"/>
      <point x="321" y="160" type="line"/>
      <point x="449" y="219" type="line"/>
      <point x="426" y="269" type="line"/>
      <point x="321" y="222" type="line"/>
      <point x="321" y="317" type="line"/>
      <point x="448" y="375" type="line"/>
      <point x="426" y="425" type="line"/>
      <point x="321" y="378" type="line"/>
      <point x="321" y="512" type="line"/>
      <point x="486" y="512" type="line"/>
      <point x="486" y="580" type="line"/>
      <point x="77" y="580" type="line"/>
      <point x="77" y="512" type="line"/>
      <point x="242" y="512" type="line"/>
      <point x="242" y="346" type="line"/>
      <point x="116" y="289" type="line"/>
      <point x="138" y="239" type="line"/>
      <point x="242" y="286" type="line"/>
      <point x="242" y="190" type="line"/>
      <point x="116" y="133" type="line"/>
      <point x="139" y="83" type="line"/>
      <point x="242" y="129" type="line"/>
    </contour>
  </outline>
</glyph>
<glyph name="two.numr" format="2">
  <advance width="560"/>
  <outline>
    <contour>
      <point x="158" y="319" type="curve"/>
      <point x="418" y="319" type="line"/>
      <point x="418" y="375" type="line"/>
      <point x="223" y="375" type="line"/>
      <point x="223" y="390"/>
      <point x="249" y="413"/>
      <point x="272" y="432" type="curve" smooth="yes"/>
      <point x="342" y="493"/>
      <point x="400" y="546"/>
      <point x="400" y="602" type="curve" smooth="yes"/>
      <point x="400" y="672"/>
      <point x="356" y="709"/>
      <point x="268" y="709" type="curve" smooth="yes"/>
      <point x="209" y="709"/>
      <point x="162" y="680"/>
      <point x="143" y="658" type="curve"/>
      <point x="174" y="618" type="line"/>
      <point x="186" y="626"/>
      <point x="222" y="657"/>
      <point x="269" y="657" type="curve" smooth="yes"/>
      <point x="313" y="657"/>
      <point x="339" y="642"/>
      <point x="339" y="602" type="curve" smooth="yes"/>
      <point x="339" y="568"/>
      <point x="305" y="533"/>
      <point x="257" y="492" type="curve" smooth="yes"/>
      <point x="208" y="450"/>
      <point x="148" y="403"/>
    </contour>
  </outline>
</glyph>
<glyph name="zero.osf" format="2">
  <advance width="560"/>
  <guideline x="539" y="271" angle="0"/>
  <outline>
    <contour>
      <point x="280" y="-11" type="curve" smooth="yes"/>
      <point x="408" y="-11"/>
      <point x="482" y="111"/>
      <point x="482" y="292" type="curve" smooth="yes"/>
      <point x="482" y="474"/>
      <point x="408" y="591"/>
      <point x="280" y="591" type="curve" smooth="yes"/>
      <point x="152" y="591"/>
      <point x="78" y="474"/>
      <point x="78" y="292" type="curve" smooth="yes"/>
      <point x="78" y="111"/>
      <point x="152" y="-11"/>
    </contour>
    <contour>
      <point x="280" y="54" type="curve" smooth="yes"/>
      <point x="187" y="54"/>
      <point x="160" y="174"/>
      <point x="160" y="292" type="curve" smooth="yes"/>
      <point x="160" y="411"/>
      <point x="187" y="526"/>
      <point x="280" y="526" type="curve" smooth="yes"/>
      <point x="374" y="526"/>
      <point x="400" y="410"/>
      <point x="400" y="292" type="curve" smooth="yes"/>
      <point x="400" y="175"/>
      <point x="374" y="54"/>
    </contour>
    <contour>
      <point x="281" y="227" type="curve" smooth="yes"/>
      <point x="316" y="227"/>
      <point x="340" y="258"/>
      <point x="340" y="293" type="curve" smooth="yes"/>
      <point x="340" y="328"/>
      <point x="316" y="361"/>
      <point x="281" y="361" type="curve" smooth="yes"/>
      <point x="246" y="361"/>
      <point x="220" y="328"/>
      <point x="220" y="293" type="curve" smooth="yes"/>
      <point x="220" y="258"/>
      <point x="246" y="227"/>
    </contour>
  </outline>
</glyph>
